<svg xmlns="http://www.w3.org/2000/svg" xmlns:xlink="http://www.w3.org/1999/xlink" width="457" zoomAndPan="magnify" viewBox="0 0 342.75 342.749987" height="457" preserveAspectRatio="xMidYMid meet" version="1.0"><defs><clipPath id="5eaea28c3b"><path d="M 0 0 L 341.75 0 L 341.75 341.75 L 0 341.75 Z M 0 0 " clip-rule="nonzero"/></clipPath><clipPath id="e711e19b77"><path d="M 170.875 0 C 76.503906 0 0 76.503906 0 170.875 C 0 265.246094 76.503906 341.75 170.875 341.75 C 265.246094 341.75 341.75 265.246094 341.75 170.875 C 341.75 76.503906 265.246094 0 170.875 0 Z M 170.875 0 " clip-rule="nonzero"/></clipPath><clipPath id="cf12919e3c"><path d="M 69.34375 51.195312 L 135.632812 51.195312 L 135.632812 110.179688 L 69.34375 110.179688 Z M 69.34375 51.195312 " clip-rule="nonzero"/></clipPath><clipPath id="599ebf16af"><path d="M 71.289062 105.980469 C 69.265625 87.09375 69.191406 81.699219 69.71875 76.078125 C 70.390625 70.007812 71.890625 61.089844 73.539062 57.042969 C 74.4375 54.867188 75.113281 53.445312 76.460938 52.46875 C 77.8125 51.570312 79.460938 51.644531 81.410156 51.421875 C 84.03125 51.195312 87.554688 51.195312 90.851562 51.644531 C 94.597656 52.097656 99.246094 53.292969 102.542969 54.34375 C 105.089844 55.167969 107.039062 56.144531 109.0625 57.117188 C 110.863281 57.941406 112.136719 58.542969 114.160156 59.890625 C 117.605469 62.136719 123.902344 67.234375 127.5 70.308594 C 130.121094 72.40625 132.597656 74.355469 133.945312 76.078125 C 134.769531 77.050781 135.367188 77.800781 135.519531 78.851562 C 135.59375 80.125 134.996094 82.375 134.019531 83.347656 C 133.046875 84.320312 130.796875 84.773438 129.523438 84.621094 C 128.472656 84.472656 127.425781 83.796875 126.75 82.972656 C 126.074219 82.222656 125.550781 81.101562 125.550781 80.050781 C 125.550781 78.703125 126.375 76.601562 127.5 75.777344 C 128.550781 74.878906 130.796875 74.503906 132.070312 74.953125 C 133.421875 75.402344 134.996094 76.976562 135.367188 78.328125 C 135.742188 79.675781 135.144531 81.847656 134.394531 82.898438 C 133.796875 83.796875 132.671875 84.398438 131.695312 84.621094 C 130.648438 84.847656 129.824219 84.847656 128.472656 84.320312 C 124.875 82.75 116.40625 73.53125 111.460938 70.15625 C 108.015625 67.835938 105.390625 66.410156 102.167969 65.0625 C 99.019531 63.710938 95.722656 62.738281 92.199219 62.136719 C 88.378906 61.539062 80.734375 62.738281 80.285156 61.613281 C 80.058594 60.9375 82.980469 58.242188 83.507812 58.542969 C 84.707031 59.140625 79.683594 72.03125 79.011719 79.601562 C 78.335938 88.070312 81.707031 102.984375 80.210938 107.105469 C 79.757812 108.53125 78.933594 109.054688 78.035156 109.503906 C 77.136719 110.027344 75.710938 110.101562 74.8125 109.953125 C 74.0625 109.804688 73.390625 109.503906 72.863281 108.90625 C 72.191406 108.230469 71.289062 105.980469 71.289062 105.980469 " clip-rule="nonzero"/></clipPath><clipPath id="482659afae"><path d="M 0.34375 0.195312 L 66.632812 0.195312 L 66.632812 59.179688 L 0.34375 59.179688 Z M 0.34375 0.195312 " clip-rule="nonzero"/></clipPath><clipPath id="9991538249"><path d="M 2.289062 54.980469 C 0.265625 36.09375 0.191406 30.699219 0.71875 25.078125 C 1.390625 19.007812 2.890625 10.089844 4.539062 6.042969 C 5.4375 3.867188 6.113281 2.445312 7.460938 1.46875 C 8.8125 0.570312 10.460938 0.644531 12.410156 0.421875 C 15.03125 0.195312 18.554688 0.195312 21.851562 0.644531 C 25.597656 1.097656 30.246094 2.292969 33.542969 3.34375 C 36.089844 4.167969 38.039062 5.144531 40.0625 6.117188 C 41.863281 6.941406 43.136719 7.542969 45.160156 8.890625 C 48.605469 11.136719 54.902344 16.234375 58.5 19.308594 C 61.121094 21.40625 63.597656 23.355469 64.945312 25.078125 C 65.769531 26.050781 66.367188 26.800781 66.519531 27.851562 C 66.59375 29.125 65.996094 31.375 65.019531 32.347656 C 64.046875 33.320312 61.796875 33.773438 60.523438 33.621094 C 59.472656 33.472656 58.425781 32.796875 57.75 31.972656 C 57.074219 31.222656 56.550781 30.101562 56.550781 29.050781 C 56.550781 27.703125 57.375 25.601562 58.5 24.777344 C 59.550781 23.878906 61.796875 23.503906 63.070312 23.953125 C 64.421875 24.402344 65.996094 25.976562 66.367188 27.328125 C 66.742188 28.675781 66.144531 30.847656 65.394531 31.898438 C 64.796875 32.796875 63.671875 33.398438 62.695312 33.621094 C 61.648438 33.847656 60.824219 33.847656 59.472656 33.320312 C 55.875 31.75 47.40625 22.53125 42.460938 19.15625 C 39.015625 16.835938 36.390625 15.410156 33.167969 14.0625 C 30.019531 12.710938 26.722656 11.738281 23.199219 11.136719 C 19.378906 10.539062 11.734375 11.738281 11.285156 10.613281 C 11.058594 9.9375 13.980469 7.242188 14.507812 7.542969 C 15.707031 8.140625 10.683594 21.03125 10.011719 28.601562 C 9.335938 37.070312 12.707031 51.984375 11.210938 56.105469 C 10.757812 57.53125 9.933594 58.054688 9.035156 58.503906 C 8.136719 59.027344 6.710938 59.101562 5.8125 58.953125 C 5.0625 58.804688 4.390625 58.503906 3.863281 57.90625 C 3.191406 57.230469 2.289062 54.980469 2.289062 54.980469 " clip-rule="nonzero"/></clipPath><clipPath id="7d4540cef2"><rect x="0" width="67" y="0" height="60"/></clipPath><clipPath id="e3a9c5bb42"><path d="M 126.929688 67.082031 L 213.121094 67.082031 L 213.121094 84.339844 L 126.929688 84.339844 Z M 126.929688 67.082031 " clip-rule="nonzero"/></clipPath><clipPath id="78aebb6bb2"><path d="M 129.597656 75.554688 C 141.589844 70.683594 148.558594 69.40625 153.65625 68.582031 C 158.003906 67.910156 161.375 67.535156 165.871094 67.382812 C 171.492188 67.085938 179.136719 67.011719 184.683594 67.460938 C 189.03125 67.757812 192.328125 68.210938 196.375 69.183594 C 200.945312 70.308594 208.066406 72.03125 210.6875 74.128906 C 212.113281 75.328125 212.863281 76.902344 213.085938 78.175781 C 213.238281 79.226562 212.789062 80.425781 212.1875 81.25 C 211.589844 82.074219 210.6875 82.898438 209.640625 83.125 C 208.367188 83.421875 206.117188 83.199219 205.066406 82.375 C 203.945312 81.472656 203.042969 79.449219 203.121094 78.101562 C 203.195312 76.753906 204.394531 74.804688 205.59375 74.128906 C 206.71875 73.457031 209.039062 73.457031 210.238281 73.90625 C 211.214844 74.28125 212.039062 75.179688 212.488281 76.078125 C 212.9375 76.976562 213.238281 78.175781 213.011719 79.226562 C 212.710938 80.5 211.289062 82.296875 210.164062 82.898438 C 209.191406 83.421875 208.441406 83.421875 207.015625 83.273438 C 203.867188 82.898438 197.050781 79.375 192.550781 78.328125 C 188.804688 77.425781 185.507812 77.203125 181.835938 76.976562 C 177.9375 76.679688 174.339844 76.679688 169.695312 76.902344 C 163.472656 77.277344 154.480469 78.175781 147.808594 79.527344 C 141.890625 80.726562 134.84375 84.472656 131.546875 84.324219 C 130.121094 84.246094 129.296875 83.796875 128.550781 83.125 C 127.800781 82.449219 127.199219 81.101562 127.050781 80.199219 C 126.898438 79.449219 127.050781 78.703125 127.351562 77.953125 C 127.800781 77.128906 129.597656 75.554688 129.597656 75.554688 " clip-rule="nonzero"/></clipPath><clipPath id="cbf6a1c9f2"><path d="M 0.929688 0.0820312 L 87.121094 0.0820312 L 87.121094 17.339844 L 0.929688 17.339844 Z M 0.929688 0.0820312 " clip-rule="nonzero"/></clipPath><clipPath id="3c7926f9fb"><path d="M 3.597656 8.554688 C 15.589844 3.683594 22.558594 2.40625 27.65625 1.582031 C 32.003906 0.910156 35.375 0.535156 39.871094 0.382812 C 45.492188 0.0859375 53.136719 0.0117188 58.683594 0.460938 C 63.03125 0.757812 66.328125 1.210938 70.375 2.183594 C 74.945312 3.308594 82.066406 5.03125 84.6875 7.128906 C 86.113281 8.328125 86.863281 9.902344 87.085938 11.175781 C 87.238281 12.226562 86.789062 13.425781 86.1875 14.25 C 85.589844 15.074219 84.6875 15.898438 83.640625 16.125 C 82.367188 16.421875 80.117188 16.199219 79.066406 15.375 C 77.945312 14.472656 77.042969 12.449219 77.121094 11.101562 C 77.195312 9.753906 78.394531 7.804688 79.59375 7.128906 C 80.71875 6.457031 83.039062 6.457031 84.238281 6.90625 C 85.214844 7.28125 86.039062 8.179688 86.488281 9.078125 C 86.9375 9.976562 87.238281 11.175781 87.011719 12.226562 C 86.710938 13.5 85.289062 15.296875 84.164062 15.898438 C 83.191406 16.421875 82.441406 16.421875 81.015625 16.273438 C 77.867188 15.898438 71.050781 12.375 66.550781 11.328125 C 62.804688 10.425781 59.507812 10.203125 55.835938 9.976562 C 51.9375 9.679688 48.339844 9.679688 43.695312 9.902344 C 37.472656 10.277344 28.480469 11.175781 21.808594 12.527344 C 15.890625 13.726562 8.84375 17.472656 5.546875 17.324219 C 4.121094 17.246094 3.296875 16.796875 2.550781 16.125 C 1.800781 15.449219 1.199219 14.101562 1.050781 13.199219 C 0.898438 12.449219 1.050781 11.703125 1.351562 10.953125 C 1.800781 10.128906 3.597656 8.554688 3.597656 8.554688 " clip-rule="nonzero"/></clipPath><clipPath id="cf44ba3a8c"><rect x="0" width="88" y="0" height="18"/></clipPath><clipPath id="92c1897a3c"><path d="M 204.3125 52.378906 L 274.21875 52.378906 L 274.21875 105.554688 L 204.3125 105.554688 Z M 204.3125 52.378906 " clip-rule="nonzero"/></clipPath><clipPath id="1fdf449d94"><path d="M 205.902344 75.320312 C 218.910156 65.285156 223.015625 63.234375 226.964844 61.488281 C 230.917969 59.738281 235.019531 58.445312 239.046875 57.230469 C 242.996094 56.015625 247.101562 55.027344 250.976562 54.265625 C 254.613281 53.507812 258.796875 52.746094 261.664062 52.671875 C 263.523438 52.59375 264.992188 52.441406 266.464844 53.050781 C 267.9375 53.660156 269.40625 55.179688 270.335938 56.621094 C 271.421875 58.140625 271.808594 59.890625 272.429688 62.09375 C 273.203125 64.984375 273.824219 69.164062 273.976562 72.8125 C 274.132812 76.609375 273.746094 80.867188 273.203125 84.589844 C 272.660156 88.085938 271.886719 91.355469 270.878906 94.546875 C 269.871094 97.664062 268.710938 101.691406 267.238281 103.441406 C 266.386719 104.429688 265.457031 104.960938 264.449219 105.1875 C 263.445312 105.492188 262.128906 105.417969 261.121094 104.960938 C 260.191406 104.582031 259.183594 103.746094 258.640625 102.832031 C 258.101562 101.921875 257.714844 100.703125 257.945312 99.640625 C 258.253906 98.347656 259.496094 96.371094 260.8125 95.6875 C 262.050781 95.082031 264.375 95.082031 265.691406 95.765625 C 266.929688 96.449219 268.167969 98.425781 268.324219 99.792969 C 268.476562 101.238281 267.550781 103.289062 266.464844 104.199219 C 265.304688 105.113281 262.980469 105.417969 261.664062 105.1875 C 260.578125 104.960938 259.570312 104.125 258.953125 103.289062 C 258.332031 102.453125 257.867188 101.464844 257.945312 100.171875 C 257.945312 97.96875 260.113281 94.699219 261.042969 91.507812 C 262.128906 87.707031 263.210938 83.222656 263.675781 78.738281 C 264.21875 73.722656 266.15625 64.753906 263.753906 62.625 C 261.816406 60.953125 257.480469 62.855469 253.453125 63.691406 C 247.414062 64.832031 236.957031 67.71875 231.070312 70.074219 C 226.890625 71.746094 224.179688 73.265625 220.847656 75.394531 C 217.285156 77.597656 213.101562 82.464844 210.46875 83.222656 C 209.152344 83.605469 208.070312 83.375 207.0625 82.917969 C 206.132812 82.464844 205.203125 81.476562 204.816406 80.488281 C 204.351562 79.574219 204.429688 78.132812 204.660156 77.21875 C 204.894531 76.460938 205.976562 75.320312 205.976562 75.320312 " clip-rule="nonzero"/></clipPath><clipPath id="4d00016529"><path d="M 0.332031 0.378906 L 70.21875 0.378906 L 70.21875 53.523438 L 0.332031 53.523438 Z M 0.332031 0.378906 " clip-rule="nonzero"/></clipPath><clipPath id="d0a80e2139"><path d="M 1.902344 23.320312 C 14.910156 13.285156 19.015625 11.234375 22.964844 9.488281 C 26.917969 7.738281 31.019531 6.445312 35.046875 5.230469 C 38.996094 4.015625 43.101562 3.027344 46.976562 2.265625 C 50.613281 1.507812 54.796875 0.746094 57.664062 0.671875 C 59.523438 0.59375 60.992188 0.441406 62.464844 1.050781 C 63.9375 1.660156 65.40625 3.179688 66.335938 4.621094 C 67.421875 6.140625 67.808594 7.890625 68.429688 10.09375 C 69.203125 12.984375 69.824219 17.164062 69.976562 20.8125 C 70.132812 24.609375 69.746094 28.867188 69.203125 32.589844 C 68.660156 36.085938 67.886719 39.355469 66.878906 42.546875 C 65.871094 45.664062 64.710938 49.691406 63.238281 51.441406 C 62.386719 52.429688 61.457031 52.960938 60.449219 53.1875 C 59.445312 53.492188 58.128906 53.417969 57.121094 52.960938 C 56.191406 52.582031 55.183594 51.746094 54.640625 50.832031 C 54.101562 49.921875 53.714844 48.703125 53.945312 47.640625 C 54.253906 46.347656 55.496094 44.371094 56.8125 43.6875 C 58.050781 43.082031 60.375 43.082031 61.691406 43.765625 C 62.929688 44.449219 64.167969 46.425781 64.324219 47.792969 C 64.476562 49.238281 63.550781 51.289062 62.464844 52.199219 C 61.304688 53.113281 58.980469 53.417969 57.664062 53.1875 C 56.578125 52.960938 55.570312 52.125 54.953125 51.289062 C 54.332031 50.453125 53.867188 49.464844 53.945312 48.171875 C 53.945312 45.96875 56.113281 42.699219 57.042969 39.507812 C 58.128906 35.707031 59.210938 31.222656 59.675781 26.738281 C 60.21875 21.722656 62.15625 12.753906 59.753906 10.625 C 57.816406 8.953125 53.480469 10.855469 49.453125 11.691406 C 43.414062 12.832031 32.957031 15.71875 27.070312 18.074219 C 22.890625 19.746094 20.179688 21.265625 16.847656 23.394531 C 13.285156 25.597656 9.101562 30.464844 6.46875 31.222656 C 5.152344 31.605469 4.070312 31.375 3.0625 30.917969 C 2.132812 30.464844 1.203125 29.476562 0.816406 28.488281 C 0.351562 27.574219 0.429688 26.132812 0.660156 25.21875 C 0.894531 24.460938 1.976562 23.320312 1.976562 23.320312 " clip-rule="nonzero"/></clipPath><clipPath id="df482482d8"><rect x="0" width="71" y="0" height="54"/></clipPath><clipPath id="8257f4677f"><path d="M 204.128906 95.386719 L 292.84375 95.386719 L 292.84375 250.820312 L 204.128906 250.820312 Z M 204.128906 95.386719 " clip-rule="nonzero"/></clipPath><clipPath id="c0b3b0c26a"><path d="M 265.300781 96.199219 C 275.410156 104.59375 278.121094 108.640625 280.320312 112.164062 C 282.445312 115.386719 284.054688 118.308594 285.667969 122.132812 C 287.570312 126.855469 289.625 133.375 290.722656 138.621094 C 291.746094 143.191406 292.261719 147.238281 292.480469 151.734375 C 292.699219 156.53125 292.554688 161.628906 291.894531 166.574219 C 291.308594 171.597656 290.0625 176.765625 288.746094 181.714844 C 287.425781 186.433594 285.886719 191.082031 283.980469 195.578125 C 282.078125 200.148438 279.292969 205.472656 277.097656 208.992188 C 275.558594 211.542969 274.457031 212.964844 272.625 215.289062 C 270.136719 218.363281 266.546875 222.410156 263.175781 225.558594 C 259.878906 228.703125 256.363281 231.476562 252.625 234.175781 C 248.742188 236.875 244.421875 239.570312 240.320312 241.746094 C 236.507812 243.695312 232.699219 245.34375 228.816406 246.691406 C 225.007812 247.964844 220.609375 249.089844 217.167969 249.765625 C 214.53125 250.289062 211.894531 250.664062 210.0625 250.589844 C 208.816406 250.589844 207.863281 250.664062 206.984375 250.0625 C 205.960938 249.390625 204.640625 247.589844 204.492188 246.242188 C 204.421875 244.816406 205.371094 242.867188 206.253906 241.96875 C 206.984375 241.21875 208.15625 240.84375 209.109375 240.84375 C 210.136719 240.769531 211.308594 241.070312 212.113281 241.671875 C 213.066406 242.496094 214.164062 244.441406 214.164062 245.792969 C 214.089844 247.140625 213.066406 249.089844 211.964844 249.839844 C 210.867188 250.589844 208.667969 250.8125 207.496094 250.289062 C 206.253906 249.765625 204.933594 247.964844 204.640625 246.765625 C 204.347656 245.71875 204.566406 244.519531 205.007812 243.617188 C 205.371094 242.71875 205.960938 241.96875 207.132812 241.371094 C 209.914062 239.871094 218.632812 239.796875 223.320312 238.449219 C 227.058594 237.472656 229.769531 236.347656 233.140625 234.773438 C 236.875 232.976562 240.90625 230.503906 244.566406 228.179688 C 248.15625 225.78125 251.382812 223.683594 254.824219 220.535156 C 259 216.789062 263.835938 211.839844 267.425781 206.746094 C 271.089844 201.5 274.019531 195.652344 276.4375 189.433594 C 279 182.914062 281.199219 175.195312 282.222656 168.296875 C 283.175781 161.777344 283.175781 154.582031 282.738281 149.113281 C 282.445312 144.914062 281.785156 141.992188 280.832031 138.09375 C 279.734375 133.597656 278.195312 128.425781 276.070312 123.78125 C 273.871094 119.058594 270.867188 113.8125 267.71875 110.140625 C 265.152344 107.144531 260.757812 104.820312 259.367188 103.097656 C 258.707031 102.347656 258.488281 101.898438 258.339844 101.148438 C 258.195312 100.25 258.339844 98.75 258.707031 97.851562 C 259.074219 97.175781 259.511719 96.652344 260.171875 96.199219 C 260.976562 95.75 262.371094 95.375 263.25 95.453125 C 264.054688 95.453125 265.300781 96.199219 265.300781 96.199219 " clip-rule="nonzero"/></clipPath><clipPath id="1caa988202"><path d="M 0.332031 0.386719 L 88.828125 0.386719 L 88.828125 155.820312 L 0.332031 155.820312 Z M 0.332031 0.386719 " clip-rule="nonzero"/></clipPath><clipPath id="5cd06ca066"><path d="M 61.300781 1.199219 C 71.410156 9.59375 74.121094 13.640625 76.320312 17.164062 C 78.445312 20.386719 80.054688 23.308594 81.667969 27.132812 C 83.570312 31.855469 85.625 38.375 86.722656 43.621094 C 87.746094 48.191406 88.261719 52.238281 88.480469 56.734375 C 88.699219 61.53125 88.554688 66.628906 87.894531 71.574219 C 87.308594 76.597656 86.0625 81.765625 84.746094 86.714844 C 83.425781 91.433594 81.886719 96.082031 79.980469 100.578125 C 78.078125 105.148438 75.292969 110.472656 73.097656 113.992188 C 71.558594 116.542969 70.457031 117.964844 68.625 120.289062 C 66.136719 123.363281 62.546875 127.410156 59.175781 130.558594 C 55.878906 133.703125 52.363281 136.476562 48.625 139.175781 C 44.742188 141.875 40.421875 144.570312 36.320312 146.746094 C 32.507812 148.695312 28.699219 150.34375 24.816406 151.691406 C 21.007812 152.964844 16.609375 154.089844 13.167969 154.765625 C 10.53125 155.289062 7.894531 155.664062 6.0625 155.589844 C 4.816406 155.589844 3.863281 155.664062 2.984375 155.0625 C 1.960938 154.390625 0.640625 152.589844 0.492188 151.242188 C 0.421875 149.816406 1.371094 147.867188 2.253906 146.96875 C 2.984375 146.21875 4.15625 145.84375 5.109375 145.84375 C 6.136719 145.769531 7.308594 146.070312 8.113281 146.671875 C 9.066406 147.496094 10.164062 149.441406 10.164062 150.792969 C 10.089844 152.140625 9.066406 154.089844 7.964844 154.839844 C 6.867188 155.589844 4.667969 155.8125 3.496094 155.289062 C 2.253906 154.765625 0.933594 152.964844 0.640625 151.765625 C 0.347656 150.71875 0.566406 149.519531 1.007812 148.617188 C 1.371094 147.71875 1.960938 146.96875 3.132812 146.371094 C 5.914062 144.871094 14.632812 144.796875 19.320312 143.449219 C 23.058594 142.472656 25.769531 141.347656 29.140625 139.773438 C 32.875 137.976562 36.90625 135.503906 40.566406 133.179688 C 44.15625 130.78125 47.382812 128.683594 50.824219 125.535156 C 55 121.789062 59.835938 116.839844 63.425781 111.746094 C 67.089844 106.5 70.019531 100.652344 72.4375 94.433594 C 75 87.914062 77.199219 80.195312 78.222656 73.296875 C 79.175781 66.777344 79.175781 59.582031 78.738281 54.113281 C 78.445312 49.914062 77.785156 46.992188 76.832031 43.09375 C 75.734375 38.597656 74.195312 33.425781 72.070312 28.78125 C 69.871094 24.058594 66.867188 18.8125 63.71875 15.140625 C 61.152344 12.144531 56.757812 9.820312 55.367188 8.097656 C 54.707031 7.347656 54.488281 6.898438 54.339844 6.148438 C 54.195312 5.25 54.339844 3.75 54.707031 2.851562 C 55.074219 2.175781 55.511719 1.652344 56.171875 1.199219 C 56.976562 0.75 58.371094 0.375 59.25 0.453125 C 60.054688 0.453125 61.300781 1.199219 61.300781 1.199219 " clip-rule="nonzero"/></clipPath><clipPath id="0ffa082b56"><rect x="0" width="89" y="0" height="156"/></clipPath><clipPath id="09ab51115b"><path d="M 124.53125 241.449219 L 136.613281 241.449219 L 136.613281 273.417969 L 124.53125 273.417969 Z M 124.53125 241.449219 " clip-rule="nonzero"/></clipPath><clipPath id="abc47ced7d"><path d="M 124.578125 268.6875 C 125.175781 254.074219 125.925781 247.328125 127.050781 244.707031 C 127.648438 243.429688 128.097656 242.757812 129 242.230469 C 130.121094 241.707031 132.371094 241.484375 133.570312 241.855469 C 134.542969 242.230469 135.445312 243.132812 135.894531 243.957031 C 136.417969 244.855469 136.71875 245.980469 136.492188 247.027344 C 136.269531 248.226562 135.070312 250.175781 133.871094 250.777344 C 132.671875 251.375 130.421875 251.300781 129.296875 250.625 C 128.097656 249.953125 126.976562 248.003906 126.824219 246.804688 C 126.601562 245.753906 127.050781 244.554688 127.574219 243.730469 C 128.097656 242.90625 129.074219 242.15625 129.972656 241.78125 C 130.871094 241.484375 132.144531 241.40625 133.121094 241.707031 C 134.019531 242.007812 135.070312 242.757812 135.59375 243.507812 C 136.195312 244.332031 136.492188 245.15625 136.566406 246.503906 C 136.71875 249.277344 134.695312 255.199219 134.171875 259.394531 C 133.644531 263.292969 134.394531 268.6875 133.34375 270.859375 C 132.746094 272.058594 131.695312 272.660156 130.871094 273.035156 C 130.199219 273.410156 129.449219 273.484375 128.699219 273.335938 C 127.726562 273.183594 126.449219 272.585938 125.777344 271.761719 C 125.101562 271.011719 124.578125 268.6875 124.578125 268.6875 " clip-rule="nonzero"/></clipPath><clipPath id="27fd32e1d6"><path d="M 0.53125 0.449219 L 12.613281 0.449219 L 12.613281 32.417969 L 0.53125 32.417969 Z M 0.53125 0.449219 " clip-rule="nonzero"/></clipPath><clipPath id="cc903649b3"><path d="M 0.578125 27.6875 C 1.175781 13.074219 1.925781 6.328125 3.050781 3.707031 C 3.648438 2.429688 4.097656 1.757812 5 1.230469 C 6.121094 0.707031 8.371094 0.484375 9.570312 0.855469 C 10.542969 1.230469 11.445312 2.132812 11.894531 2.957031 C 12.417969 3.855469 12.71875 4.980469 12.492188 6.027344 C 12.269531 7.226562 11.070312 9.175781 9.871094 9.777344 C 8.671875 10.375 6.421875 10.300781 5.296875 9.625 C 4.097656 8.953125 2.976562 7.003906 2.824219 5.804688 C 2.601562 4.753906 3.050781 3.554688 3.574219 2.730469 C 4.097656 1.90625 5.074219 1.15625 5.972656 0.78125 C 6.871094 0.484375 8.144531 0.40625 9.121094 0.707031 C 10.019531 1.007812 11.070312 1.757812 11.59375 2.507812 C 12.195312 3.332031 12.492188 4.15625 12.566406 5.503906 C 12.71875 8.277344 10.695312 14.199219 10.171875 18.394531 C 9.644531 22.292969 10.394531 27.6875 9.34375 29.859375 C 8.746094 31.058594 7.695312 31.660156 6.871094 32.035156 C 6.199219 32.410156 5.449219 32.484375 4.699219 32.335938 C 3.726562 32.183594 2.449219 31.585938 1.777344 30.761719 C 1.101562 30.011719 0.578125 27.6875 0.578125 27.6875 " clip-rule="nonzero"/></clipPath><clipPath id="1769820750"><rect x="0" width="13" y="0" height="33"/></clipPath><clipPath id="a887cf7e15"><path d="M 117.855469 292.816406 L 134.554688 292.816406 L 134.554688 333.800781 L 117.855469 333.800781 Z M 117.855469 292.816406 " clip-rule="nonzero"/></clipPath><clipPath id="172cdeac67"><path d="M 134.394531 297.316406 C 134.621094 314.855469 134.394531 316.726562 133.871094 318.902344 C 133.34375 321 132.445312 322.949219 131.546875 324.820312 C 130.722656 326.46875 130.046875 328.042969 128.921875 329.46875 C 127.800781 330.890625 126.375 332.765625 124.875 333.367188 C 123.453125 333.816406 121.355469 333.742188 120.230469 332.992188 C 119.03125 332.316406 117.980469 330.367188 117.90625 329.019531 C 117.832031 327.667969 118.804688 325.644531 119.929688 324.820312 C 121.054688 323.996094 123.226562 323.847656 124.503906 324.148438 C 125.550781 324.445312 126.449219 325.195312 126.976562 326.097656 C 127.574219 327.21875 127.800781 329.46875 127.425781 330.742188 C 127.050781 331.71875 126.152344 332.617188 125.328125 333.066406 C 124.425781 333.589844 123.226562 333.816406 122.253906 333.742188 C 121.203125 333.589844 120.082031 333.140625 119.40625 332.316406 C 118.507812 331.34375 117.757812 329.691406 117.980469 327.894531 C 118.28125 324.972656 123.152344 321.300781 124.503906 316.726562 C 126.226562 310.957031 124.050781 298.742188 125.625 295.367188 C 126.226562 294.09375 127.125 293.570312 128.023438 293.195312 C 129 292.746094 130.421875 292.820312 131.320312 293.046875 C 132.070312 293.269531 132.671875 293.71875 133.195312 294.320312 C 133.796875 294.992188 134.394531 297.316406 134.394531 297.316406 " clip-rule="nonzero"/></clipPath><clipPath id="6f9a29a6a8"><path d="M 0.855469 0.816406 L 17.554688 0.816406 L 17.554688 41.800781 L 0.855469 41.800781 Z M 0.855469 0.816406 " clip-rule="nonzero"/></clipPath><clipPath id="9e97116302"><path d="M 17.394531 5.316406 C 17.621094 22.855469 17.394531 24.726562 16.871094 26.902344 C 16.34375 29 15.445312 30.949219 14.546875 32.820312 C 13.722656 34.46875 13.046875 36.042969 11.921875 37.46875 C 10.800781 38.890625 9.375 40.765625 7.875 41.367188 C 6.453125 41.816406 4.355469 41.742188 3.230469 40.992188 C 2.03125 40.316406 0.980469 38.367188 0.90625 37.019531 C 0.832031 35.667969 1.804688 33.644531 2.929688 32.820312 C 4.054688 31.996094 6.226562 31.847656 7.503906 32.148438 C 8.550781 32.445312 9.449219 33.195312 9.976562 34.097656 C 10.574219 35.21875 10.800781 37.46875 10.425781 38.742188 C 10.050781 39.71875 9.152344 40.617188 8.328125 41.066406 C 7.425781 41.589844 6.226562 41.816406 5.253906 41.742188 C 4.203125 41.589844 3.082031 41.140625 2.40625 40.316406 C 1.507812 39.34375 0.757812 37.691406 0.980469 35.894531 C 1.28125 32.972656 6.152344 29.300781 7.503906 24.726562 C 9.226562 18.957031 7.050781 6.742188 8.625 3.367188 C 9.226562 2.09375 10.125 1.570312 11.023438 1.195312 C 12 0.746094 13.421875 0.820312 14.320312 1.046875 C 15.070312 1.269531 15.671875 1.71875 16.195312 2.320312 C 16.796875 2.992188 17.394531 5.316406 17.394531 5.316406 " clip-rule="nonzero"/></clipPath><clipPath id="e34fa0875c"><rect x="0" width="18" y="0" height="42"/></clipPath><clipPath id="f6c17c0135"><path d="M 202.789062 240.511719 L 224.777344 240.511719 L 224.777344 332.90625 L 202.789062 332.90625 Z M 202.789062 240.511719 " clip-rule="nonzero"/></clipPath><clipPath id="9e21cb4797"><path d="M 212.1875 244.855469 C 215.335938 277.304688 213.988281 304.4375 214.734375 312.007812 C 214.960938 314.480469 214.960938 315.378906 215.710938 316.878906 C 216.386719 318.375 217.734375 319.726562 219.007812 320.925781 C 220.207031 322.125 222.15625 322.875 223.128906 323.996094 C 223.878906 324.898438 224.480469 325.871094 224.628906 326.921875 C 224.777344 327.96875 224.628906 329.242188 224.03125 330.144531 C 223.355469 331.265625 221.332031 332.542969 220.058594 332.765625 C 218.933594 332.992188 217.734375 332.691406 216.835938 332.015625 C 215.785156 331.265625 214.585938 329.242188 214.4375 327.894531 C 214.285156 326.769531 214.660156 325.570312 215.335938 324.746094 C 216.160156 323.699219 218.332031 322.648438 219.609375 322.574219 C 220.730469 322.5 221.929688 322.875 222.753906 323.621094 C 223.730469 324.523438 224.628906 326.695312 224.703125 328.042969 C 224.703125 329.167969 224.179688 330.292969 223.429688 331.042969 C 222.457031 332.015625 220.582031 332.914062 218.933594 332.765625 C 216.683594 332.542969 213.460938 329.769531 211.511719 328.042969 C 209.863281 326.621094 208.742188 325.121094 207.691406 323.472656 C 206.71875 321.824219 206.042969 320.023438 205.519531 318.226562 C 204.992188 316.351562 204.84375 315.378906 204.695312 312.53125 C 204.09375 304.4375 205.519531 277.679688 204.917969 265.164062 C 204.542969 256.847656 202.144531 248.152344 202.96875 244.480469 C 203.269531 243.054688 203.792969 242.308594 204.617188 241.632812 C 205.367188 241.03125 206.71875 240.582031 207.765625 240.582031 C 208.742188 240.660156 210.015625 241.183594 210.765625 241.933594 C 211.511719 242.605469 212.1875 244.855469 212.1875 244.855469 " clip-rule="nonzero"/></clipPath><clipPath id="7f0bbcb350"><path d="M 0.789062 0.542969 L 22.777344 0.542969 L 22.777344 92.90625 L 0.789062 92.90625 Z M 0.789062 0.542969 " clip-rule="nonzero"/></clipPath><clipPath id="cdd5a8eba0"><path d="M 10.1875 4.855469 C 13.335938 37.304688 11.988281 64.4375 12.734375 72.007812 C 12.960938 74.480469 12.960938 75.378906 13.710938 76.878906 C 14.386719 78.375 15.734375 79.726562 17.007812 80.925781 C 18.207031 82.125 20.15625 82.875 21.128906 83.996094 C 21.878906 84.898438 22.480469 85.871094 22.628906 86.921875 C 22.777344 87.96875 22.628906 89.242188 22.03125 90.144531 C 21.355469 91.265625 19.332031 92.542969 18.058594 92.765625 C 16.933594 92.992188 15.734375 92.691406 14.835938 92.015625 C 13.785156 91.265625 12.585938 89.242188 12.4375 87.894531 C 12.285156 86.769531 12.660156 85.570312 13.335938 84.746094 C 14.160156 83.699219 16.332031 82.648438 17.609375 82.574219 C 18.730469 82.5 19.929688 82.875 20.753906 83.621094 C 21.730469 84.523438 22.628906 86.695312 22.703125 88.042969 C 22.703125 89.167969 22.179688 90.292969 21.429688 91.042969 C 20.457031 92.015625 18.582031 92.914062 16.933594 92.765625 C 14.683594 92.542969 11.460938 89.769531 9.511719 88.042969 C 7.863281 86.621094 6.742188 85.121094 5.691406 83.472656 C 4.71875 81.824219 4.042969 80.023438 3.519531 78.226562 C 2.992188 76.351562 2.84375 75.378906 2.695312 72.53125 C 2.09375 64.4375 3.519531 37.679688 2.917969 25.164062 C 2.542969 16.847656 0.144531 8.152344 0.96875 4.480469 C 1.269531 3.054688 1.792969 2.308594 2.617188 1.632812 C 3.367188 1.03125 4.71875 0.582031 5.765625 0.582031 C 6.742188 0.660156 8.015625 1.183594 8.765625 1.933594 C 9.511719 2.605469 10.1875 4.855469 10.1875 4.855469 " clip-rule="nonzero"/></clipPath><clipPath id="31cba006b1"><rect x="0" width="23" y="0" height="93"/></clipPath><clipPath id="b51eddf899"><path d="M 123.859375 265 L 132.671875 265 L 132.671875 273.917969 L 123.859375 273.917969 Z M 123.859375 265 " clip-rule="nonzero"/></clipPath><clipPath id="bbbd5a1ff0"><path d="M 132.671875 268.089844 C 131.472656 272.808594 130.871094 273.183594 130.199219 273.484375 C 129.597656 273.785156 128.847656 274.007812 128.097656 273.859375 C 127.050781 273.710938 125.175781 272.585938 124.503906 271.6875 C 124.050781 271.085938 123.828125 270.410156 123.902344 269.660156 C 123.902344 268.613281 124.652344 266.589844 125.550781 265.839844 C 126.527344 265.089844 128.625 264.941406 129.671875 265.089844 C 130.496094 265.242188 131.546875 266.214844 131.546875 266.214844 " clip-rule="nonzero"/></clipPath><clipPath id="405fcfd833"><path d="M 0.859375 0 L 9.671875 0 L 9.671875 8.917969 L 0.859375 8.917969 Z M 0.859375 0 " clip-rule="nonzero"/></clipPath><clipPath id="0fc5244a38"><path d="M 9.671875 3.089844 C 8.472656 7.808594 7.871094 8.183594 7.199219 8.484375 C 6.597656 8.785156 5.847656 9.007812 5.097656 8.859375 C 4.050781 8.710938 2.175781 7.585938 1.503906 6.6875 C 1.050781 6.085938 0.828125 5.410156 0.902344 4.660156 C 0.902344 3.613281 1.652344 1.589844 2.550781 0.839844 C 3.527344 0.0898438 5.625 -0.0585938 6.671875 0.0898438 C 7.496094 0.242188 8.546875 1.214844 8.546875 1.214844 " clip-rule="nonzero"/></clipPath><clipPath id="6c4a4d8ff9"><rect x="0" width="10" y="0" height="9"/></clipPath><clipPath id="2d97691f0a"><path d="M 40.582031 231.710938 L 133.441406 231.710938 L 133.441406 300.207031 L 40.582031 300.207031 Z M 40.582031 231.710938 " clip-rule="nonzero"/></clipPath><clipPath id="c6a46d49ba"><path d="M 127.332031 274.152344 C 117.691406 276.453125 116.28125 276.378906 114.648438 276.304688 C 112.867188 276.15625 111.382812 276.082031 109.378906 275.636719 C 106.5625 275.117188 102.480469 274.078125 99.214844 272.742188 C 95.953125 271.480469 92.09375 269.550781 89.722656 268.066406 C 88.164062 267.03125 87.71875 266.585938 86.085938 265.175781 C 82.375 261.984375 72.730469 251.300781 68.652344 248.261719 C 66.722656 246.851562 66.054688 246.480469 64.050781 245.664062 C 60.789062 244.402344 50.847656 242.175781 50.699219 242.546875 C 50.625 242.769531 53.441406 243.660156 55 244.699219 C 57.300781 246.332031 59.898438 248.484375 62.714844 251.746094 C 67.242188 257.238281 74.4375 271.554688 78 276.15625 C 79.632812 278.082031 80.300781 278.75 81.855469 280.011719 C 84.007812 281.71875 86.902344 283.722656 89.871094 285.132812 C 92.984375 286.613281 97.140625 287.949219 100.105469 288.691406 C 102.332031 289.210938 103.371094 289.507812 105.894531 289.582031 C 110.863281 289.730469 123.550781 286.6875 128.074219 287.578125 C 130.152344 287.949219 131.5625 288.765625 132.453125 289.878906 C 133.121094 290.769531 133.492188 291.957031 133.34375 293.070312 C 133.195312 294.480469 132.082031 296.628906 130.820312 297.371094 C 129.558594 298.113281 127.183594 298.261719 125.851562 297.667969 C 124.515625 297.074219 123.105469 295.148438 122.882812 293.738281 C 122.585938 292.253906 123.476562 290.027344 124.441406 288.988281 C 125.183594 288.171875 126.445312 287.726562 127.480469 287.578125 C 128.519531 287.503906 129.855469 287.726562 130.746094 288.320312 C 131.710938 288.839844 132.601562 289.878906 132.972656 290.84375 C 133.34375 291.882812 133.417969 293.21875 133.195312 294.257812 C 132.898438 295.296875 132.453125 296.257812 131.265625 297 C 128.742188 298.707031 121.027344 299.375 115.910156 299.746094 C 110.863281 300.191406 105.746094 300.339844 100.699219 299.523438 C 95.507812 298.707031 89.5 296.554688 85.195312 294.554688 C 81.929688 293.070312 79.335938 291.214844 77.035156 289.582031 C 75.179688 288.246094 73.992188 287.28125 72.433594 285.578125 C 70.210938 283.351562 67.835938 280.234375 65.460938 276.675781 C 62.269531 272 59.15625 264.359375 55.371094 259.609375 C 52.109375 255.457031 46.988281 252.265625 44.6875 249.445312 C 43.28125 247.742188 42.464844 246.554688 41.796875 244.996094 C 41.128906 243.4375 40.609375 241.65625 40.683594 240.023438 C 40.683594 238.394531 41.054688 236.539062 41.945312 235.203125 C 42.835938 233.941406 44.316406 232.902344 46.023438 232.382812 C 48.398438 231.640625 51.886719 232.085938 55.296875 232.605469 C 59.453125 233.199219 65.089844 234.609375 69.023438 236.390625 C 72.359375 237.949219 74.363281 239.507812 77.554688 242.175781 C 82.523438 246.257812 90.164062 255.976562 95.210938 259.609375 C 98.328125 261.835938 100.699219 262.726562 103.59375 263.839844 C 106.488281 264.953125 110.121094 265.917969 112.644531 266.4375 C 114.425781 266.734375 115.539062 266.957031 117.320312 266.882812 C 119.691406 266.734375 123.699219 265.25 125.554688 265.25 C 126.519531 265.25 127.039062 265.324219 127.703125 265.621094 C 128.371094 265.917969 129.039062 266.289062 129.410156 266.957031 C 130.003906 267.695312 130.523438 269.03125 130.449219 269.996094 C 130.375 271.035156 129.78125 272.296875 129.1875 272.964844 C 128.667969 273.558594 127.332031 274.152344 127.332031 274.152344 " clip-rule="nonzero"/></clipPath><clipPath id="b28a0f2809"><path d="M 0.582031 0.710938 L 93.441406 0.710938 L 93.441406 69.207031 L 0.582031 69.207031 Z M 0.582031 0.710938 " clip-rule="nonzero"/></clipPath><clipPath id="c2891247ec"><path d="M 87.332031 43.152344 C 77.691406 45.453125 76.28125 45.378906 74.648438 45.304688 C 72.867188 45.15625 71.382812 45.082031 69.378906 44.636719 C 66.5625 44.117188 62.480469 43.078125 59.214844 41.742188 C 55.953125 40.480469 52.09375 38.550781 49.722656 37.066406 C 48.164062 36.03125 47.71875 35.585938 46.085938 34.175781 C 42.375 30.984375 32.730469 20.300781 28.652344 17.261719 C 26.722656 15.851562 26.054688 15.480469 24.050781 14.664062 C 20.789062 13.402344 10.847656 11.175781 10.699219 11.546875 C 10.625 11.769531 13.441406 12.660156 15 13.699219 C 17.300781 15.332031 19.898438 17.484375 22.714844 20.746094 C 27.242188 26.238281 34.4375 40.554688 38 45.15625 C 39.632812 47.082031 40.300781 47.75 41.855469 49.011719 C 44.007812 50.71875 46.902344 52.722656 49.871094 54.132812 C 52.984375 55.613281 57.140625 56.949219 60.105469 57.691406 C 62.332031 58.210938 63.371094 58.507812 65.894531 58.582031 C 70.863281 58.730469 83.550781 55.6875 88.074219 56.578125 C 90.152344 56.949219 91.5625 57.765625 92.453125 58.878906 C 93.121094 59.769531 93.492188 60.957031 93.34375 62.070312 C 93.195312 63.480469 92.082031 65.628906 90.820312 66.371094 C 89.558594 67.113281 87.183594 67.261719 85.851562 66.667969 C 84.515625 66.074219 83.105469 64.148438 82.882812 62.738281 C 82.585938 61.253906 83.476562 59.027344 84.441406 57.988281 C 85.183594 57.171875 86.445312 56.726562 87.480469 56.578125 C 88.519531 56.503906 89.855469 56.726562 90.746094 57.320312 C 91.710938 57.839844 92.601562 58.878906 92.972656 59.84375 C 93.34375 60.882812 93.417969 62.21875 93.195312 63.257812 C 92.898438 64.296875 92.453125 65.257812 91.265625 66 C 88.742188 67.707031 81.027344 68.375 75.910156 68.746094 C 70.863281 69.191406 65.746094 69.339844 60.699219 68.523438 C 55.507812 67.707031 49.5 65.554688 45.195312 63.554688 C 41.929688 62.070312 39.335938 60.214844 37.035156 58.582031 C 35.179688 57.246094 33.992188 56.28125 32.433594 54.578125 C 30.210938 52.351562 27.835938 49.234375 25.460938 45.675781 C 22.269531 41 19.15625 33.359375 15.371094 28.609375 C 12.109375 24.457031 6.988281 21.265625 4.6875 18.445312 C 3.28125 16.742188 2.464844 15.554688 1.796875 13.996094 C 1.128906 12.4375 0.609375 10.65625 0.683594 9.023438 C 0.683594 7.394531 1.054688 5.539062 1.945312 4.203125 C 2.835938 2.941406 4.316406 1.902344 6.023438 1.382812 C 8.398438 0.640625 11.886719 1.085938 15.296875 1.605469 C 19.453125 2.199219 25.089844 3.609375 29.023438 5.390625 C 32.359375 6.949219 34.363281 8.507812 37.554688 11.175781 C 42.523438 15.257812 50.164062 24.976562 55.210938 28.609375 C 58.328125 30.835938 60.699219 31.726562 63.59375 32.839844 C 66.488281 33.953125 70.121094 34.917969 72.644531 35.4375 C 74.425781 35.734375 75.539062 35.957031 77.320312 35.882812 C 79.691406 35.734375 83.699219 34.25 85.554688 34.25 C 86.519531 34.25 87.039062 34.324219 87.703125 34.621094 C 88.371094 34.917969 89.039062 35.289062 89.410156 35.957031 C 90.003906 36.695312 90.523438 38.03125 90.449219 38.996094 C 90.375 40.035156 89.78125 41.296875 89.1875 41.964844 C 88.667969 42.558594 87.332031 43.152344 87.332031 43.152344 " clip-rule="nonzero"/></clipPath><clipPath id="7a9f2a281c"><rect x="0" width="94" y="0" height="70"/></clipPath><clipPath id="c348e2f5de"><path d="M 50 103 L 135 103 L 135 252 L 50 252 Z M 50 103 " clip-rule="nonzero"/></clipPath><clipPath id="3791c88376"><path d="M 55.589844 101.5625 L 145.800781 108.894531 L 134.210938 251.507812 L 44 244.175781 Z M 55.589844 101.5625 " clip-rule="nonzero"/></clipPath><clipPath id="38bcdfcd45"><path d="M 79.105469 109.847656 C 70.222656 125.246094 68.777344 128.207031 67.3125 132.410156 C 65.316406 138.183594 63.058594 146.207031 61.921875 153.292969 C 60.867188 160.316406 60.679688 169.53125 60.835938 174.527344 C 60.9375 177.246094 61.089844 178.359375 61.605469 180.890625 C 62.433594 184.546875 64.070312 190.101562 66.039062 194.511719 C 68.011719 198.921875 70.632812 203.238281 73.441406 207.203125 C 76.324219 211.25 80.375 215.753906 83.273438 218.628906 C 85.207031 220.542969 86.734375 221.546875 88.621094 223.019531 C 90.578125 224.644531 92.375 226.253906 94.96875 227.929688 C 98.320312 230.179688 103.230469 233 107.335938 234.871094 C 111.207031 236.652344 114.964844 237.835938 118.960938 239.039062 C 122.960938 240.242188 128.808594 240.425781 131.414062 241.957031 C 133.019531 242.964844 134.035156 244.292969 134.421875 245.5 C 134.664062 246.46875 134.40625 247.621094 133.9375 248.464844 C 133.46875 249.304688 132.519531 250.105469 131.601562 250.542969 C 130.679688 250.984375 129.382812 251.171875 128.363281 250.867188 C 127.023438 250.539062 125.207031 249.144531 124.574219 248.070312 C 124.085938 247.148438 124.101562 245.980469 124.335938 245.046875 C 124.574219 244.113281 125.222656 243.066406 126.144531 242.554688 C 127.242188 241.910156 129.535156 241.363281 130.867188 241.765625 C 132.199219 242.167969 133.839844 243.765625 134.300781 244.976562 C 134.679688 246.253906 134.109375 248.332031 133.308594 249.292969 C 132.679688 250.121094 131.753906 250.628906 130.527344 250.898438 C 128.816406 251.199219 126.214844 250.621094 123.691406 250.046875 C 120.449219 249.417969 116.457031 248.140625 112.636719 246.730469 C 108.339844 245.210938 103.511719 243.351562 99.039062 241.085938 C 94.335938 238.648438 89.3125 235.238281 85.292969 232.347656 C 81.726562 229.785156 79.007812 227.660156 75.960938 224.628906 C 72.316406 221.035156 68.136719 216.152344 65.105469 211.949219 C 62.351562 208.28125 60.027344 204.28125 58.359375 201.070312 C 57.113281 198.625 56.523438 196.964844 55.613281 194.324219 C 54.285156 190.921875 52.566406 186.382812 51.792969 182.070312 C 50.882812 177.453125 50.730469 172.386719 50.816406 167.410156 C 50.828125 162.285156 51.347656 156.902344 52.167969 151.769531 C 52.984375 146.632812 54.128906 141.449219 55.570312 136.585938 C 56.992188 131.9375 58.445312 127.878906 60.683594 123.078125 C 63.394531 117.363281 68.300781 107.433594 71.164062 104.808594 C 72.207031 103.792969 73.117188 103.5 74.171875 103.367188 C 75.226562 103.234375 76.644531 103.566406 77.558594 104.15625 C 78.398438 104.734375 79.277344 105.761719 79.519531 106.730469 C 79.761719 107.703125 79.105469 109.847656 79.105469 109.847656 " clip-rule="nonzero"/></clipPath><clipPath id="29405130e0"><path d="M 0.601562 0.125 L 84.78125 0.125 L 84.78125 148.335938 L 0.601562 148.335938 Z M 0.601562 0.125 " clip-rule="nonzero"/></clipPath><clipPath id="0d9c302d8e"><path d="M 5.589844 -1.4375 L 95.800781 5.894531 L 84.210938 148.507812 L -6 141.175781 Z M 5.589844 -1.4375 " clip-rule="nonzero"/></clipPath><clipPath id="5975ab6282"><path d="M 29.105469 6.847656 C 20.222656 22.246094 18.777344 25.207031 17.3125 29.410156 C 15.316406 35.183594 13.058594 43.207031 11.921875 50.292969 C 10.867188 57.316406 10.679688 66.53125 10.835938 71.527344 C 10.9375 74.246094 11.089844 75.359375 11.605469 77.890625 C 12.433594 81.546875 14.070312 87.101562 16.039062 91.511719 C 18.011719 95.921875 20.632812 100.238281 23.441406 104.203125 C 26.324219 108.25 30.375 112.753906 33.273438 115.628906 C 35.207031 117.542969 36.734375 118.546875 38.621094 120.019531 C 40.578125 121.644531 42.375 123.253906 44.96875 124.929688 C 48.320312 127.179688 53.230469 130 57.335938 131.871094 C 61.207031 133.652344 64.964844 134.835938 68.960938 136.039062 C 72.960938 137.242188 78.808594 137.425781 81.414062 138.957031 C 83.019531 139.964844 84.035156 141.292969 84.421875 142.5 C 84.664062 143.46875 84.40625 144.621094 83.9375 145.464844 C 83.46875 146.304688 82.519531 147.105469 81.601562 147.542969 C 80.679688 147.984375 79.382812 148.171875 78.363281 147.867188 C 77.023438 147.539062 75.207031 146.144531 74.574219 145.070312 C 74.085938 144.148438 74.101562 142.980469 74.335938 142.046875 C 74.574219 141.113281 75.222656 140.066406 76.144531 139.554688 C 77.242188 138.910156 79.535156 138.363281 80.867188 138.765625 C 82.199219 139.167969 83.839844 140.765625 84.300781 141.976562 C 84.679688 143.253906 84.109375 145.332031 83.308594 146.292969 C 82.679688 147.121094 81.753906 147.628906 80.527344 147.898438 C 78.816406 148.199219 76.214844 147.621094 73.691406 147.046875 C 70.449219 146.417969 66.457031 145.140625 62.636719 143.730469 C 58.339844 142.210938 53.511719 140.351562 49.039062 138.085938 C 44.335938 135.648438 39.3125 132.238281 35.292969 129.347656 C 31.726562 126.785156 29.007812 124.660156 25.960938 121.628906 C 22.316406 118.035156 18.136719 113.152344 15.105469 108.949219 C 12.351562 105.28125 10.027344 101.28125 8.359375 98.070312 C 7.113281 95.625 6.523438 93.964844 5.613281 91.324219 C 4.285156 87.921875 2.566406 83.382812 1.792969 79.070312 C 0.882812 74.453125 0.730469 69.386719 0.816406 64.410156 C 0.828125 59.285156 1.347656 53.902344 2.167969 48.769531 C 2.984375 43.632812 4.128906 38.449219 5.570312 33.585938 C 6.992188 28.9375 8.445312 24.878906 10.683594 20.078125 C 13.394531 14.363281 18.300781 4.433594 21.164062 1.808594 C 22.207031 0.792969 23.117188 0.5 24.171875 0.367188 C 25.226562 0.234375 26.644531 0.566406 27.558594 1.15625 C 28.398438 1.734375 29.277344 2.761719 29.519531 3.730469 C 29.761719 4.703125 29.105469 6.847656 29.105469 6.847656 " clip-rule="nonzero"/></clipPath><clipPath id="0f4841ebb4"><rect x="0" width="85" y="0" height="149"/></clipPath></defs><g clip-path="url(#5eaea28c3b)"><g clip-path="url(#e711e19b77)"><path stroke-linecap="butt" transform="matrix(0.749453, 0, 0, 0.749453, 0.0000065, -0.000000000000191707)" fill="none" stroke-linejoin="miter" d="M 227.999523 0.000000000000255795 C 102.07961 0.000000000000255795 -0.00000867299 102.079619 -0.00000867299 227.999532 C -0.00000867299 353.919445 102.07961 455.999064 227.999523 455.999064 C 353.919437 455.999064 455.999055 353.919445 455.999055 227.999532 C 455.999055 102.079619 353.919437 0.000000000000255795 227.999523 0.000000000000255795 Z M 227.999523 0.000000000000255795 " stroke="#000000" stroke-width="20" stroke-opacity="1" stroke-miterlimit="4"/></g></g><g clip-path="url(#cf12919e3c)"><g clip-path="url(#599ebf16af)"><g transform="matrix(1, 0, 0, 1, 69, 51)"><g clip-path="url(#7d4540cef2)"><g clip-path="url(#482659afae)"><g clip-path="url(#9991538249)"><rect x="-144.405" width="493.56" fill="#000000" height="493.559981" y="-126.404997" fill-opacity="1"/></g></g></g></g></g></g><g clip-path="url(#e3a9c5bb42)"><g clip-path="url(#78aebb6bb2)"><g transform="matrix(1, 0, 0, 1, 126, 67)"><g clip-path="url(#cf44ba3a8c)"><g clip-path="url(#cbf6a1c9f2)"><g clip-path="url(#3c7926f9fb)"><rect x="-201.405" width="493.56" fill="#000000" height="493.559981" y="-142.404997" fill-opacity="1"/></g></g></g></g></g></g><g clip-path="url(#92c1897a3c)"><g clip-path="url(#1fdf449d94)"><g transform="matrix(1, 0, 0, 1, 204, 52)"><g clip-path="url(#df482482d8)"><g clip-path="url(#4d00016529)"><g clip-path="url(#d0a80e2139)"><rect x="-279.405" width="493.56" fill="#000000" height="493.559981" y="-127.404997" fill-opacity="1"/></g></g></g></g></g></g><g clip-path="url(#8257f4677f)"><g clip-path="url(#c0b3b0c26a)"><g transform="matrix(1, 0, 0, 1, 204, 95)"><g clip-path="url(#0ffa082b56)"><g clip-path="url(#1caa988202)"><g clip-path="url(#5cd06ca066)"><rect x="-279.405" width="493.56" fill="#000000" height="493.559981" y="-170.404997" fill-opacity="1"/></g></g></g></g></g></g><g clip-path="url(#09ab51115b)"><g clip-path="url(#abc47ced7d)"><g transform="matrix(1, 0, 0, 1, 124, 241)"><g clip-path="url(#1769820750)"><g clip-path="url(#27fd32e1d6)"><g clip-path="url(#cc903649b3)"><rect x="-199.405" width="493.56" fill="#000000" height="493.559981" y="-316.404997" fill-opacity="1"/></g></g></g></g></g></g><g clip-path="url(#a887cf7e15)"><g clip-path="url(#172cdeac67)"><g transform="matrix(1, 0, 0, 1, 117, 292)"><g clip-path="url(#e34fa0875c)"><g clip-path="url(#6f9a29a6a8)"><g clip-path="url(#9e97116302)"><rect x="-192.405" width="493.56" fill="#000000" height="493.559981" y="-367.404997" fill-opacity="1"/></g></g></g></g></g></g><g clip-path="url(#f6c17c0135)"><g clip-path="url(#9e21cb4797)"><g transform="matrix(1, 0, 0, 1, 202, 240)"><g clip-path="url(#31cba006b1)"><g clip-path="url(#7f0bbcb350)"><g clip-path="url(#cdd5a8eba0)"><rect x="-277.405" width="493.56" fill="#000000" height="493.559981" y="-315.404997" fill-opacity="1"/></g></g></g></g></g></g><g clip-path="url(#b51eddf899)"><g clip-path="url(#bbbd5a1ff0)"><g transform="matrix(1, 0, 0, 1, 123, 265)"><g clip-path="url(#6c4a4d8ff9)"><g clip-path="url(#405fcfd833)"><g clip-path="url(#0fc5244a38)"><rect x="-198.405" width="493.56" fill="#000000" height="493.559981" y="-340.404997" fill-opacity="1"/></g></g></g></g></g></g><g clip-path="url(#2d97691f0a)"><g clip-path="url(#c6a46d49ba)"><g transform="matrix(1, 0, 0, 1, 40, 231)"><g clip-path="url(#7a9f2a281c)"><g clip-path="url(#b28a0f2809)"><g clip-path="url(#c2891247ec)"><rect x="-115.405" width="493.56" fill="#000000" height="493.559981" y="-306.404997" fill-opacity="1"/></g></g></g></g></g></g><g clip-path="url(#c348e2f5de)"><g clip-path="url(#3791c88376)"><g clip-path="url(#38bcdfcd45)"><g transform="matrix(1, 0, 0, 1, 50, 103)"><g clip-path="url(#0f4841ebb4)"><g clip-path="url(#29405130e0)"><g clip-path="url(#0d9c302d8e)"><g clip-path="url(#5975ab6282)"><path fill="#000000" d="M 3.183594 -4.269531 L 99.007812 3.519531 L 86.960938 151.746094 L -8.863281 143.957031 Z M 3.183594 -4.269531 " fill-opacity="1" fill-rule="nonzero"/></g></g></g></g></g></g></g></g></svg>