<svg xmlns="http://www.w3.org/2000/svg" xmlns:xlink="http://www.w3.org/1999/xlink" width="486" zoomAndPan="magnify" viewBox="0 0 364.5 350.250003" height="467" preserveAspectRatio="xMidYMid meet" version="1.0"><defs><clipPath id="8593b3faa6"><path d="M 110 175.449219 L 259.808594 175.449219 L 259.808594 343.683594 L 110 343.683594 Z M 110 175.449219 " clip-rule="nonzero"/></clipPath><clipPath id="d098a2ee8f"><path d="M 117.863281 181.636719 C 158.125 219.355469 172.347656 230.058594 179.382812 236.570312 C 183.199219 240.085938 186.117188 245.550781 187.839844 245.101562 C 189.035156 244.800781 188.511719 241.132812 189.785156 238.964844 C 191.878906 235.519531 196.070312 232.378906 200.859375 227.511719 C 209.542969 218.757812 229.074219 200.195312 237.679688 190.992188 C 242.695312 185.753906 245.464844 180.589844 248.980469 178.269531 C 251.152344 176.769531 253.472656 175.574219 255.117188 176.023438 C 256.765625 176.472656 258.410156 178.71875 259.085938 180.4375 C 259.757812 182.085938 259.160156 183.207031 259.234375 185.976562 C 259.308594 194.058594 259.160156 218.382812 258.785156 233.351562 C 258.488281 246.972656 257.589844 257.523438 257.363281 272.265625 C 257.066406 291.5 259.910156 330.417969 257.8125 338.875 C 257.289062 340.96875 256.765625 341.867188 255.792969 342.617188 C 255.042969 343.214844 253.996094 343.515625 253.023438 343.363281 C 251.824219 343.214844 250.03125 342.167969 249.355469 341.195312 C 248.757812 340.371094 248.609375 339.25 248.757812 338.351562 C 248.832031 337.453125 249.355469 336.40625 249.953125 335.730469 C 250.554688 335.058594 251.527344 334.382812 252.5 334.308594 C 253.695312 334.234375 255.71875 334.757812 256.539062 335.730469 C 257.4375 336.628906 257.886719 338.648438 257.738281 339.847656 C 257.589844 340.820312 256.914062 341.71875 256.242188 342.316406 C 255.492188 342.914062 254.445312 343.363281 253.546875 343.363281 C 252.574219 343.441406 251.453125 343.214844 250.703125 342.617188 C 249.804688 341.867188 249.28125 341.121094 248.683594 338.875 C 245.914062 327.273438 250.179688 252.359375 250.179688 225.042969 C 250.179688 209.699219 249.132812 196.082031 249.65625 189.046875 C 249.878906 186.125 249.507812 183.65625 250.703125 182.832031 C 251.824219 182.011719 255.941406 182.382812 256.390625 183.804688 C 258.1875 189.121094 204.078125 239.1875 194.949219 248.167969 C 192.402344 250.636719 191.804688 251.835938 189.933594 252.808594 C 188.210938 253.707031 185.890625 254.457031 184.097656 254.007812 C 182.375 253.632812 181.253906 252.136719 179.53125 250.636719 C 176.6875 248.167969 173.46875 244.050781 169.277344 240.234375 C 163.441406 234.773438 155.132812 229.007812 146.976562 221.824219 C 136.421875 212.46875 115.691406 194.359375 111.800781 188.371094 C 110.601562 186.574219 110.230469 185.601562 110.304688 184.40625 C 110.378906 183.355469 111.050781 182.234375 111.800781 181.5625 C 112.625 180.886719 113.820312 180.4375 114.871094 180.4375 C 115.84375 180.511719 117.863281 181.636719 117.863281 181.636719 " clip-rule="nonzero"/></clipPath><clipPath id="5c86b2bffa"><path d="M 0.0664062 0.542969 L 149.808594 0.542969 L 149.808594 168.664062 L 0.0664062 168.664062 Z M 0.0664062 0.542969 " clip-rule="nonzero"/></clipPath><clipPath id="ae7030938c"><path d="M 7.863281 6.636719 C 48.125 44.355469 62.347656 55.058594 69.382812 61.570312 C 73.199219 65.085938 76.117188 70.550781 77.839844 70.101562 C 79.035156 69.800781 78.511719 66.132812 79.785156 63.964844 C 81.878906 60.519531 86.070312 57.378906 90.859375 52.511719 C 99.542969 43.757812 119.074219 25.195312 127.679688 15.992188 C 132.695312 10.753906 135.464844 5.589844 138.980469 3.269531 C 141.152344 1.769531 143.472656 0.574219 145.117188 1.023438 C 146.765625 1.472656 148.410156 3.71875 149.085938 5.4375 C 149.757812 7.085938 149.160156 8.207031 149.234375 10.976562 C 149.308594 19.058594 149.160156 43.382812 148.785156 58.351562 C 148.488281 71.972656 147.589844 82.523438 147.363281 97.265625 C 147.066406 116.5 149.910156 155.417969 147.8125 163.875 C 147.289062 165.96875 146.765625 166.867188 145.792969 167.617188 C 145.042969 168.214844 143.996094 168.515625 143.023438 168.363281 C 141.824219 168.214844 140.03125 167.167969 139.355469 166.195312 C 138.757812 165.371094 138.609375 164.25 138.757812 163.351562 C 138.832031 162.453125 139.355469 161.40625 139.953125 160.730469 C 140.554688 160.058594 141.527344 159.382812 142.5 159.308594 C 143.695312 159.234375 145.71875 159.757812 146.539062 160.730469 C 147.4375 161.628906 147.886719 163.648438 147.738281 164.847656 C 147.589844 165.820312 146.914062 166.71875 146.242188 167.316406 C 145.492188 167.914062 144.445312 168.363281 143.546875 168.363281 C 142.574219 168.441406 141.453125 168.214844 140.703125 167.617188 C 139.804688 166.867188 139.28125 166.121094 138.683594 163.875 C 135.914062 152.273438 140.179688 77.359375 140.179688 50.042969 C 140.179688 34.699219 139.132812 21.082031 139.65625 14.046875 C 139.878906 11.125 139.507812 8.65625 140.703125 7.832031 C 141.824219 7.011719 145.941406 7.382812 146.390625 8.804688 C 148.1875 14.121094 94.078125 64.1875 84.949219 73.167969 C 82.402344 75.636719 81.804688 76.835938 79.933594 77.808594 C 78.210938 78.707031 75.890625 79.457031 74.097656 79.007812 C 72.375 78.632812 71.253906 77.136719 69.53125 75.636719 C 66.6875 73.167969 63.46875 69.050781 59.277344 65.234375 C 53.441406 59.773438 45.132812 54.007812 36.976562 46.824219 C 26.421875 37.46875 5.691406 19.359375 1.800781 13.371094 C 0.601562 11.574219 0.230469 10.601562 0.304688 9.40625 C 0.378906 8.355469 1.050781 7.234375 1.800781 6.5625 C 2.625 5.886719 3.820312 5.4375 4.871094 5.4375 C 5.84375 5.511719 7.863281 6.636719 7.863281 6.636719 " clip-rule="nonzero"/></clipPath><clipPath id="f874fece9b"><rect x="0" width="150" y="0" height="169"/></clipPath><clipPath id="93c7204471"><path d="M 110.730469 181.347656 L 123.808594 181.347656 L 123.808594 344 L 110.730469 344 Z M 110.730469 181.347656 " clip-rule="nonzero"/></clipPath><clipPath id="4a09dacf7f"><path d="M 119.957031 185.675781 C 122.652344 261.863281 125.421875 327.949219 122.652344 339.25 C 122.128906 341.570312 121.679688 342.390625 120.632812 343.140625 C 119.507812 343.886719 117.414062 344.113281 116.214844 343.589844 C 115.019531 343.140625 113.597656 341.492188 113.371094 340.222656 C 113.074219 338.949219 113.597656 336.929688 114.496094 335.957031 C 115.394531 335.058594 117.414062 334.382812 118.6875 334.609375 C 120.035156 334.757812 121.679688 336.105469 122.203125 337.226562 C 122.800781 338.425781 122.652344 340.519531 121.980469 341.644531 C 121.304688 342.765625 119.433594 343.8125 118.238281 343.964844 C 117.1875 344.113281 116.066406 343.738281 115.316406 343.140625 C 114.34375 342.390625 113.820312 341.492188 113.222656 339.25 C 110.679688 328.847656 114.269531 274.8125 113.820312 247.269531 C 113.371094 224.742188 109.554688 193.835938 111.203125 185.902344 C 111.652344 183.882812 112.101562 182.984375 113 182.308594 C 113.746094 181.636719 115.019531 181.335938 115.992188 181.410156 C 116.964844 181.5625 118.085938 182.085938 118.761719 182.832031 C 119.433594 183.507812 119.957031 185.675781 119.957031 185.675781 " clip-rule="nonzero"/></clipPath><clipPath id="979182b0c6"><path d="M 0.730469 0.347656 L 13.808594 0.347656 L 13.808594 163 L 0.730469 163 Z M 0.730469 0.347656 " clip-rule="nonzero"/></clipPath><clipPath id="40d09e393d"><path d="M 9.957031 4.675781 C 12.652344 80.863281 15.421875 146.949219 12.652344 158.25 C 12.128906 160.570312 11.679688 161.390625 10.632812 162.140625 C 9.507812 162.886719 7.414062 163.113281 6.214844 162.589844 C 5.019531 162.140625 3.597656 160.492188 3.371094 159.222656 C 3.074219 157.949219 3.597656 155.929688 4.496094 154.957031 C 5.394531 154.058594 7.414062 153.382812 8.6875 153.609375 C 10.035156 153.757812 11.679688 155.105469 12.203125 156.226562 C 12.800781 157.425781 12.652344 159.519531 11.980469 160.644531 C 11.304688 161.765625 9.433594 162.8125 8.238281 162.964844 C 7.1875 163.113281 6.066406 162.738281 5.316406 162.140625 C 4.34375 161.390625 3.820312 160.492188 3.222656 158.25 C 0.679688 147.847656 4.269531 93.8125 3.820312 66.269531 C 3.371094 43.742188 -0.445312 12.835938 1.203125 4.902344 C 1.652344 2.882812 2.101562 1.984375 3 1.308594 C 3.746094 0.636719 5.019531 0.335938 5.992188 0.410156 C 6.964844 0.5625 8.085938 1.085938 8.761719 1.832031 C 9.433594 2.507812 9.957031 4.675781 9.957031 4.675781 " clip-rule="nonzero"/></clipPath><clipPath id="21482792e8"><rect x="0" width="14" y="0" height="163"/></clipPath><clipPath id="855eee597b"><path d="M 178.355469 2.203125 L 361.355469 2.203125 L 361.355469 346.894531 L 178.355469 346.894531 Z M 178.355469 2.203125 " clip-rule="nonzero"/></clipPath><clipPath id="75789e2db5"><path d="M 180.355469 100.359375 C 194.199219 88.984375 205.199219 75.8125 214.707031 66.082031 C 225.109375 55.382812 237.90625 42.433594 248.007812 33.378906 C 255.792969 26.417969 262.828125 20.355469 269.710938 15.640625 C 275.25 11.898438 280.191406 8.832031 285.652344 6.734375 C 290.667969 4.789062 296.429688 3.816406 301.070312 3.21875 C 304.738281 2.769531 307.804688 2.917969 311.175781 2.992188 C 314.691406 3.144531 318.359375 3.21875 321.800781 4.042969 C 325.320312 4.789062 329.210938 6.4375 331.90625 7.785156 C 333.777344 8.757812 334.824219 9.28125 336.542969 10.851562 C 339.613281 13.546875 345.375 20.65625 347.769531 23.875 C 349.042969 25.59375 349.566406 26.195312 350.464844 27.988281 C 351.886719 31.058594 353.308594 35.921875 354.507812 40.710938 C 356.003906 46.773438 357.351562 52.988281 358.25 61.445312 C 359.746094 74.765625 360.042969 90.480469 360.492188 113.082031 C 361.316406 156.339844 361.464844 272.566406 359.59375 301.753906 C 358.996094 310.660156 358.695312 314.777344 357.425781 319.117188 C 356.675781 321.8125 355.777344 323.382812 354.355469 325.554688 C 352.710938 328.171875 350.089844 331.539062 347.695312 333.5625 C 345.675781 335.28125 343.730469 336.105469 341.183594 337.226562 C 337.890625 338.648438 334 339.921875 329.660156 340.96875 C 324.195312 342.316406 317.460938 343.289062 310.800781 344.039062 C 303.464844 344.9375 295.90625 345.3125 287.597656 345.683594 C 277.871094 346.058594 260.507812 346.882812 256.015625 346.207031 C 254.746094 346.058594 254.296875 345.984375 253.621094 345.460938 C 252.875 344.785156 252.125 343.140625 252.125 342.167969 C 252.050781 341.34375 252.425781 340.445312 253.023438 339.847656 C 253.695312 339.097656 255.34375 338.351562 256.390625 338.5 C 257.4375 338.574219 258.859375 339.621094 259.460938 340.519531 C 259.910156 341.195312 259.984375 342.167969 259.832031 342.914062 C 259.757812 343.738281 259.308594 344.636719 258.710938 345.160156 C 257.886719 345.757812 256.167969 346.285156 255.195312 346.132812 C 254.371094 346.058594 253.546875 345.460938 253.023438 344.863281 C 252.5 344.261719 252.125 343.363281 252.125 342.542969 C 252.050781 341.792969 252.273438 340.820312 252.722656 340.148438 C 253.398438 339.398438 254.371094 338.875 255.941406 338.425781 C 259.984375 337.453125 270.011719 338.726562 278.019531 338.425781 C 287.597656 338.050781 300.621094 337.378906 309.527344 336.03125 C 316.261719 335.058594 321.5 333.859375 327.039062 331.988281 C 332.203125 330.269531 338.042969 328.472656 341.632812 325.476562 C 344.703125 322.933594 346.722656 319.789062 348.144531 316.125 C 349.792969 312.007812 349.640625 307.742188 350.089844 301.753906 C 350.914062 292.023438 350.988281 280.351562 351.214844 263.0625 C 351.585938 228.335938 351.8125 141.972656 350.765625 105.972656 C 350.242188 87.1875 349.941406 74.914062 348.445312 62.941406 C 347.394531 54.332031 345.601562 46.550781 344.101562 40.710938 C 343.128906 36.894531 342.90625 34.574219 341.035156 31.28125 C 338.566406 26.867188 333.550781 20.582031 329.285156 17.511719 C 325.84375 15.042969 322.550781 14.070312 318.359375 13.171875 C 313.042969 12.125 305.335938 12.050781 299.796875 12.722656 C 295.082031 13.246094 291.191406 14.371094 287.148438 15.941406 C 282.960938 17.664062 279.515625 19.683594 275.101562 22.675781 C 268.890625 26.792969 261.703125 32.78125 254.222656 39.589844 C 244.34375 48.496094 231.46875 62.117188 221.515625 72.371094 C 213.058594 81.199219 204.226562 91.527344 198.164062 97.441406 C 194.648438 100.882812 191.953125 103.355469 189.410156 105.300781 C 187.6875 106.722656 186.265625 108.070312 184.621094 108.519531 C 183.199219 108.816406 181.402344 108.667969 180.355469 107.992188 C 179.304688 107.246094 178.410156 105.449219 178.410156 104.175781 C 178.410156 102.90625 180.355469 100.359375 180.355469 100.359375 " clip-rule="nonzero"/></clipPath><clipPath id="b7b95a5029"><path d="M 0.355469 0.632812 L 183.355469 0.632812 L 183.355469 344.894531 L 0.355469 344.894531 Z M 0.355469 0.632812 " clip-rule="nonzero"/></clipPath><clipPath id="540772e8bd"><path d="M 2.355469 98.359375 C 16.199219 86.984375 27.199219 73.8125 36.707031 64.082031 C 47.109375 53.382812 59.90625 40.433594 70.007812 31.378906 C 77.792969 24.417969 84.828125 18.355469 91.710938 13.640625 C 97.25 9.898438 102.191406 6.832031 107.652344 4.734375 C 112.667969 2.789062 118.429688 1.816406 123.070312 1.21875 C 126.738281 0.769531 129.804688 0.917969 133.175781 0.992188 C 136.691406 1.144531 140.359375 1.21875 143.800781 2.042969 C 147.320312 2.789062 151.210938 4.4375 153.90625 5.785156 C 155.777344 6.757812 156.824219 7.28125 158.542969 8.851562 C 161.613281 11.546875 167.375 18.65625 169.769531 21.875 C 171.042969 23.59375 171.566406 24.195312 172.464844 25.988281 C 173.886719 29.058594 175.308594 33.921875 176.507812 38.710938 C 178.003906 44.773438 179.351562 50.988281 180.25 59.445312 C 181.746094 72.765625 182.042969 88.480469 182.492188 111.082031 C 183.316406 154.339844 183.464844 270.566406 181.59375 299.753906 C 180.996094 308.660156 180.695312 312.777344 179.425781 317.117188 C 178.675781 319.8125 177.777344 321.382812 176.355469 323.554688 C 174.710938 326.171875 172.089844 329.539062 169.695312 331.5625 C 167.675781 333.28125 165.730469 334.105469 163.183594 335.226562 C 159.890625 336.648438 156 337.921875 151.660156 338.96875 C 146.195312 340.316406 139.460938 341.289062 132.800781 342.039062 C 125.464844 342.9375 117.90625 343.3125 109.597656 343.683594 C 99.871094 344.058594 82.507812 344.882812 78.015625 344.207031 C 76.746094 344.058594 76.296875 343.984375 75.621094 343.460938 C 74.875 342.785156 74.125 341.140625 74.125 340.167969 C 74.050781 339.34375 74.425781 338.445312 75.023438 337.847656 C 75.695312 337.097656 77.34375 336.351562 78.390625 336.5 C 79.4375 336.574219 80.859375 337.621094 81.460938 338.519531 C 81.910156 339.195312 81.984375 340.167969 81.832031 340.914062 C 81.757812 341.738281 81.308594 342.636719 80.710938 343.160156 C 79.886719 343.757812 78.167969 344.285156 77.195312 344.132812 C 76.371094 344.058594 75.546875 343.460938 75.023438 342.863281 C 74.5 342.261719 74.125 341.363281 74.125 340.542969 C 74.050781 339.792969 74.273438 338.820312 74.722656 338.148438 C 75.398438 337.398438 76.371094 336.875 77.941406 336.425781 C 81.984375 335.453125 92.011719 336.726562 100.019531 336.425781 C 109.597656 336.050781 122.621094 335.378906 131.527344 334.03125 C 138.261719 333.058594 143.5 331.859375 149.039062 329.988281 C 154.203125 328.269531 160.042969 326.472656 163.632812 323.476562 C 166.703125 320.933594 168.722656 317.789062 170.144531 314.125 C 171.792969 310.007812 171.640625 305.742188 172.089844 299.753906 C 172.914062 290.023438 172.988281 278.351562 173.214844 261.0625 C 173.585938 226.335938 173.8125 139.972656 172.765625 103.972656 C 172.242188 85.1875 171.941406 72.914062 170.445312 60.941406 C 169.394531 52.332031 167.601562 44.550781 166.101562 38.710938 C 165.128906 34.894531 164.90625 32.574219 163.035156 29.28125 C 160.566406 24.867188 155.550781 18.582031 151.285156 15.511719 C 147.84375 13.042969 144.550781 12.070312 140.359375 11.171875 C 135.042969 10.125 127.335938 10.050781 121.796875 10.722656 C 117.082031 11.246094 113.191406 12.371094 109.148438 13.941406 C 104.960938 15.664062 101.515625 17.683594 97.101562 20.675781 C 90.890625 24.792969 83.703125 30.78125 76.222656 37.589844 C 66.34375 46.496094 53.46875 60.117188 43.515625 70.371094 C 35.058594 79.199219 26.226562 89.527344 20.164062 95.441406 C 16.648438 98.882812 13.953125 101.355469 11.410156 103.300781 C 9.6875 104.722656 8.265625 106.070312 6.621094 106.519531 C 5.199219 106.816406 3.402344 106.667969 2.355469 105.992188 C 1.304688 105.246094 0.410156 103.449219 0.410156 102.175781 C 0.410156 100.90625 2.355469 98.359375 2.355469 98.359375 " clip-rule="nonzero"/></clipPath><clipPath id="9b7855d013"><rect x="0" width="184" y="0" height="345"/></clipPath><clipPath id="0788bbd42f"><path d="M 2.320312 7 L 187 7 L 187 347 L 2.320312 347 Z M 2.320312 7 " clip-rule="nonzero"/></clipPath><clipPath id="4841350324"><path d="M 178.433594 104.695312 C 160.464844 81.316406 148.261719 69.230469 139.019531 60.601562 C 130.957031 53.046875 123.269531 46.070312 115.429688 40.171875 C 108.402344 34.847656 101.082031 29.882812 94.574219 26.359375 C 89.324219 23.554688 84.222656 21.46875 79.5625 20.027344 C 75.792969 18.878906 72.539062 18.375 69.0625 17.871094 C 65.585938 17.292969 62.257812 16.863281 58.707031 16.792969 C 55.011719 16.71875 50.945312 16.503906 47.320312 17.292969 C 43.84375 18.085938 40.222656 19.742188 37.484375 21.25 C 35.414062 22.402344 34.007812 23.554688 32.308594 25.207031 C 30.089844 27.222656 27.355469 30.242188 25.800781 32.6875 C 24.542969 34.632812 24.175781 35.636719 23.210938 38.300781 C 21.066406 44.414062 16.851562 60.242188 15.003906 69.59375 C 13.523438 77.074219 12.710938 84.050781 12.195312 89.949219 C 11.75 94.410156 11.824219 95.5625 11.675781 101.746094 C 11.085938 124.980469 9.53125 232.886719 11.304688 266.121094 C 12.121094 280.652344 13.523438 288.78125 14.855469 297.410156 C 15.816406 303.527344 16.261719 308.203125 17.960938 313.023438 C 19.589844 317.480469 21.4375 322.15625 24.765625 325.464844 C 28.316406 328.992188 35.042969 331.582031 39.039062 333.234375 C 41.773438 334.386719 43.769531 334.816406 46.136719 335.394531 C 48.429688 335.96875 49.835938 336.402344 53.015625 336.761719 C 59.964844 337.40625 75.421875 337.335938 86.441406 336.976562 C 97.238281 336.542969 113.582031 333.8125 118.609375 334.386719 C 120.160156 334.601562 120.828125 334.675781 121.640625 335.394531 C 122.601562 336.257812 123.5625 338.269531 123.5625 339.492188 C 123.636719 340.574219 123.046875 341.652344 122.378906 342.441406 C 121.789062 343.164062 120.753906 343.882812 119.644531 344.027344 C 118.386719 344.167969 116.167969 343.738281 115.132812 342.804688 C 114.171875 341.867188 113.507812 339.710938 113.652344 338.488281 C 113.726562 337.40625 114.394531 336.402344 115.132812 335.753906 C 115.871094 335.035156 117.054688 334.53125 118.015625 334.386719 C 119.050781 334.316406 120.308594 334.601562 121.195312 335.105469 C 122.011719 335.609375 122.898438 336.472656 123.269531 337.480469 C 123.636719 338.703125 123.339844 340.933594 122.75 342.011719 C 122.234375 342.875 121.640625 343.304688 120.160156 343.882812 C 115.726562 345.535156 100.269531 345.96875 89.546875 346.398438 C 77.492188 346.832031 60.261719 346.976562 51.535156 345.96875 C 46.804688 345.464844 43.992188 344.671875 40.738281 343.667969 C 37.929688 342.804688 35.785156 341.941406 33.046875 340.644531 C 29.5 338.917969 24.320312 336.183594 21.4375 334.097656 C 19.441406 332.730469 18.332031 331.867188 16.851562 330.070312 C 15.003906 327.839844 13.230469 324.460938 11.824219 321.148438 C 10.269531 317.554688 9.089844 314.386719 7.980469 309.28125 C 6.054688 300.289062 4.503906 288.707031 3.46875 271.660156 C 1.324219 236.121094 2.800781 133.109375 3.097656 106.136719 C 3.171875 97.429688 3.023438 94.914062 3.46875 88.941406 C 3.910156 82.253906 4.503906 75.492188 5.90625 67.9375 C 7.535156 58.730469 11.675781 43.839844 13.304688 37.867188 C 14.042969 35.277344 14.191406 34.054688 14.929688 32.328125 C 15.59375 30.746094 16.484375 29.453125 17.445312 27.871094 C 18.628906 26.144531 19.8125 24.273438 21.585938 22.402344 C 23.953125 19.8125 28.167969 16 30.902344 14.058594 C 32.753906 12.761719 34.007812 12.1875 36.007812 11.324219 C 38.742188 10.171875 42.292969 8.664062 46.0625 8.015625 C 50.574219 7.222656 56.5625 7.367188 61.445312 7.582031 C 65.882812 7.871094 70.023438 8.519531 74.238281 9.382812 C 78.304688 10.246094 82.300781 11.324219 86.144531 12.691406 C 89.917969 14.058594 93.167969 15.425781 97.089844 17.4375 C 101.894531 20.027344 107.441406 23.554688 112.617188 27.148438 C 118.164062 31.035156 123.933594 35.636719 129.40625 40.242188 C 134.878906 44.773438 139.535156 48.945312 145.378906 54.558594 C 153.21875 62.039062 164.53125 72.972656 171.78125 81.460938 C 177.546875 88.222656 184.941406 97 186.199219 100.8125 C 186.644531 102.179688 186.570312 102.96875 186.199219 103.832031 C 185.828125 104.769531 184.941406 105.703125 184.054688 106.136719 C 183.242188 106.566406 181.910156 106.710938 180.949219 106.496094 C 180.0625 106.207031 178.433594 104.695312 178.433594 104.695312 " clip-rule="nonzero"/></clipPath><clipPath id="8729e5fed2"><path d="M 0.320312 0.183594 L 184.699219 0.183594 L 184.699219 340 L 0.320312 340 Z M 0.320312 0.183594 " clip-rule="nonzero"/></clipPath><clipPath id="74e99f4f84"><path d="M 176.433594 97.695312 C 158.464844 74.316406 146.261719 62.230469 137.019531 53.601562 C 128.957031 46.046875 121.269531 39.070312 113.429688 33.171875 C 106.402344 27.847656 99.082031 22.882812 92.574219 19.359375 C 87.324219 16.554688 82.222656 14.46875 77.5625 13.027344 C 73.792969 11.878906 70.539062 11.375 67.0625 10.871094 C 63.585938 10.292969 60.257812 9.863281 56.707031 9.792969 C 53.011719 9.71875 48.945312 9.503906 45.320312 10.292969 C 41.84375 11.085938 38.222656 12.742188 35.484375 14.25 C 33.414062 15.402344 32.007812 16.554688 30.308594 18.207031 C 28.089844 20.222656 25.355469 23.242188 23.800781 25.6875 C 22.542969 27.632812 22.175781 28.636719 21.210938 31.300781 C 19.066406 37.414062 14.851562 53.242188 13.003906 62.59375 C 11.523438 70.074219 10.710938 77.050781 10.195312 82.949219 C 9.75 87.410156 9.824219 88.5625 9.675781 94.746094 C 9.085938 117.980469 7.53125 225.886719 9.304688 259.121094 C 10.121094 273.652344 11.523438 281.78125 12.855469 290.410156 C 13.816406 296.527344 14.261719 301.203125 15.960938 306.023438 C 17.589844 310.480469 19.4375 315.15625 22.765625 318.464844 C 26.316406 321.992188 33.042969 324.582031 37.039062 326.234375 C 39.773438 327.386719 41.769531 327.816406 44.136719 328.394531 C 46.429688 328.96875 47.835938 329.402344 51.015625 329.761719 C 57.964844 330.40625 73.421875 330.335938 84.441406 329.976562 C 95.238281 329.542969 111.582031 326.8125 116.609375 327.386719 C 118.160156 327.601562 118.828125 327.675781 119.640625 328.394531 C 120.601562 329.257812 121.5625 331.269531 121.5625 332.492188 C 121.636719 333.574219 121.046875 334.652344 120.378906 335.441406 C 119.789062 336.164062 118.753906 336.882812 117.644531 337.027344 C 116.386719 337.167969 114.167969 336.738281 113.132812 335.804688 C 112.171875 334.867188 111.507812 332.710938 111.652344 331.488281 C 111.726562 330.40625 112.394531 329.402344 113.132812 328.753906 C 113.871094 328.035156 115.054688 327.53125 116.015625 327.386719 C 117.050781 327.316406 118.308594 327.601562 119.195312 328.105469 C 120.011719 328.609375 120.898438 329.472656 121.269531 330.480469 C 121.636719 331.703125 121.339844 333.933594 120.75 335.011719 C 120.234375 335.875 119.640625 336.304688 118.160156 336.882812 C 113.726562 338.535156 98.269531 338.96875 87.546875 339.398438 C 75.492188 339.832031 58.261719 339.976562 49.535156 338.96875 C 44.804688 338.464844 41.992188 337.671875 38.738281 336.667969 C 35.929688 335.804688 33.785156 334.941406 31.046875 333.644531 C 27.5 331.917969 22.320312 329.183594 19.4375 327.097656 C 17.441406 325.730469 16.332031 324.867188 14.851562 323.070312 C 13.003906 320.839844 11.230469 317.460938 9.824219 314.148438 C 8.269531 310.554688 7.089844 307.386719 5.980469 302.28125 C 4.054688 293.289062 2.503906 281.707031 1.46875 264.660156 C -0.675781 229.121094 0.800781 126.109375 1.097656 99.136719 C 1.171875 90.429688 1.023438 87.914062 1.46875 81.941406 C 1.910156 75.253906 2.503906 68.492188 3.90625 60.9375 C 5.535156 51.730469 9.675781 36.839844 11.304688 30.867188 C 12.042969 28.277344 12.191406 27.054688 12.929688 25.328125 C 13.59375 23.746094 14.484375 22.453125 15.445312 20.871094 C 16.628906 19.144531 17.8125 17.273438 19.585938 15.402344 C 21.953125 12.8125 26.167969 9 28.902344 7.058594 C 30.753906 5.761719 32.007812 5.1875 34.007812 4.324219 C 36.742188 3.171875 40.292969 1.664062 44.0625 1.015625 C 48.574219 0.222656 54.5625 0.367188 59.445312 0.582031 C 63.882812 0.871094 68.023438 1.519531 72.238281 2.382812 C 76.304688 3.246094 80.300781 4.324219 84.144531 5.691406 C 87.917969 7.058594 91.167969 8.425781 95.089844 10.4375 C 99.894531 13.027344 105.441406 16.554688 110.617188 20.148438 C 116.164062 24.035156 121.933594 28.636719 127.40625 33.242188 C 132.878906 37.773438 137.535156 41.945312 143.378906 47.558594 C 151.21875 55.039062 162.53125 65.972656 169.78125 74.460938 C 175.546875 81.222656 182.941406 90 184.199219 93.8125 C 184.644531 95.179688 184.570312 95.96875 184.199219 96.832031 C 183.828125 97.769531 182.941406 98.703125 182.054688 99.136719 C 181.242188 99.566406 179.910156 99.710938 178.949219 99.496094 C 178.0625 99.207031 176.433594 97.695312 176.433594 97.695312 " clip-rule="nonzero"/></clipPath><clipPath id="2eeef47015"><rect x="0" width="185" y="0" height="340"/></clipPath><clipPath id="297dcee27d"><path d="M 110.644531 36.308594 L 118.441406 36.308594 L 118.441406 199.105469 L 110.644531 199.105469 Z M 110.644531 36.308594 " clip-rule="nonzero"/></clipPath><clipPath id="dc11521e3f"><path d="M 117.9375 39.664062 C 118.011719 197.351562 117.714844 197.875 116.964844 198.476562 C 116.140625 199 114.570312 199.148438 113.671875 198.773438 C 112.773438 198.476562 111.726562 197.277344 111.5 196.304688 C 111.351562 195.332031 111.726562 193.835938 112.398438 193.085938 C 113.074219 192.414062 114.570312 191.890625 115.542969 192.039062 C 116.515625 192.1875 117.789062 193.160156 118.164062 194.058594 C 118.535156 194.957031 118.460938 196.527344 118.011719 197.351562 C 117.488281 198.175781 116.066406 198.925781 115.167969 199.074219 C 114.421875 199.148438 113.597656 198.925781 113 198.476562 C 112.25 197.875 111.875 197.203125 111.425781 195.554688 C 109.855469 189.046875 111.949219 164.347656 112.023438 144.292969 C 112.023438 115.628906 109.707031 48.871094 111.128906 39.890625 C 111.351562 38.542969 111.425781 38.167969 111.949219 37.570312 C 112.398438 36.972656 113.296875 36.523438 114.046875 36.371094 C 114.792969 36.296875 115.765625 36.445312 116.367188 36.894531 C 117.113281 37.417969 117.9375 39.664062 117.9375 39.664062 " clip-rule="nonzero"/></clipPath><clipPath id="4d5c450721"><path d="M 0.644531 0.308594 L 8.441406 0.308594 L 8.441406 163.105469 L 0.644531 163.105469 Z M 0.644531 0.308594 " clip-rule="nonzero"/></clipPath><clipPath id="fa9fc0956b"><path d="M 7.9375 3.664062 C 8.011719 161.351562 7.714844 161.875 6.964844 162.476562 C 6.140625 163 4.570312 163.148438 3.671875 162.773438 C 2.773438 162.476562 1.726562 161.277344 1.5 160.304688 C 1.351562 159.332031 1.726562 157.835938 2.398438 157.085938 C 3.074219 156.414062 4.570312 155.890625 5.542969 156.039062 C 6.515625 156.1875 7.789062 157.160156 8.164062 158.058594 C 8.535156 158.957031 8.460938 160.527344 8.011719 161.351562 C 7.488281 162.175781 6.066406 162.925781 5.167969 163.074219 C 4.421875 163.148438 3.597656 162.925781 3 162.476562 C 2.25 161.875 1.875 161.203125 1.425781 159.554688 C -0.144531 153.046875 1.949219 128.347656 2.023438 108.292969 C 2.023438 79.628906 -0.292969 12.871094 1.128906 3.890625 C 1.351562 2.542969 1.425781 2.167969 1.949219 1.570312 C 2.398438 0.972656 3.296875 0.523438 4.046875 0.371094 C 4.792969 0.296875 5.765625 0.445312 6.367188 0.894531 C 7.113281 1.417969 7.9375 3.664062 7.9375 3.664062 " clip-rule="nonzero"/></clipPath><clipPath id="53de4a7797"><rect x="0" width="9" y="0" height="164"/></clipPath><clipPath id="b0778561c6"><path d="M 247.621094 34.25 L 255.804688 34.25 L 255.804688 199.140625 L 247.621094 199.140625 Z M 247.621094 34.25 " clip-rule="nonzero"/></clipPath><clipPath id="025ebe7c31"><path d="M 255.117188 37.644531 C 254.667969 170.109375 256.691406 189.644531 255.269531 195.480469 C 254.894531 197.128906 254.519531 197.875 253.695312 198.476562 C 252.875 199 251.300781 199.148438 250.402344 198.847656 C 249.507812 198.476562 248.457031 197.203125 248.234375 196.304688 C 248.007812 195.332031 248.457031 193.761719 249.132812 193.085938 C 249.804688 192.339844 251.300781 191.890625 252.273438 192.039062 C 253.246094 192.1875 254.519531 193.160156 254.894531 194.058594 C 255.34375 194.882812 255.269531 196.527344 254.746094 197.351562 C 254.222656 198.175781 252.800781 198.925781 251.902344 199.074219 C 251.152344 199.148438 250.328125 198.925781 249.730469 198.476562 C 248.980469 197.875 248.53125 197.128906 248.160156 195.480469 C 246.738281 189.644531 248.683594 170.109375 248.832031 152.300781 C 248.980469 123.1875 246.585938 47.074219 248.308594 37.644531 C 248.53125 36.296875 248.609375 35.921875 249.132812 35.398438 C 249.804688 34.726562 251.226562 34.203125 252.125 34.277344 C 252.875 34.351562 253.773438 34.800781 254.296875 35.398438 C 254.746094 35.996094 255.117188 37.644531 255.117188 37.644531 " clip-rule="nonzero"/></clipPath><clipPath id="9bf4702bff"><path d="M 0.621094 0.25 L 8.804688 0.25 L 8.804688 165.140625 L 0.621094 165.140625 Z M 0.621094 0.25 " clip-rule="nonzero"/></clipPath><clipPath id="97c60d8c1d"><path d="M 8.117188 3.644531 C 7.667969 136.109375 9.691406 155.644531 8.269531 161.480469 C 7.894531 163.128906 7.519531 163.875 6.695312 164.476562 C 5.875 165 4.300781 165.148438 3.402344 164.847656 C 2.507812 164.476562 1.457031 163.203125 1.234375 162.304688 C 1.007812 161.332031 1.457031 159.761719 2.132812 159.085938 C 2.804688 158.339844 4.300781 157.890625 5.273438 158.039062 C 6.246094 158.1875 7.519531 159.160156 7.894531 160.058594 C 8.34375 160.882812 8.269531 162.527344 7.746094 163.351562 C 7.222656 164.175781 5.800781 164.925781 4.902344 165.074219 C 4.152344 165.148438 3.328125 164.925781 2.730469 164.476562 C 1.980469 163.875 1.53125 163.128906 1.160156 161.480469 C -0.261719 155.644531 1.683594 136.109375 1.832031 118.300781 C 1.980469 89.1875 -0.414062 13.074219 1.308594 3.644531 C 1.53125 2.296875 1.609375 1.921875 2.132812 1.398438 C 2.804688 0.726562 4.226562 0.203125 5.125 0.277344 C 5.875 0.351562 6.773438 0.800781 7.296875 1.398438 C 7.746094 1.996094 8.117188 3.644531 8.117188 3.644531 " clip-rule="nonzero"/></clipPath><clipPath id="ab599559d8"><rect x="0" width="9" y="0" height="166"/></clipPath><clipPath id="46071625ed"><path d="M 248 72.289062 L 354 72.289062 L 354 188.15625 L 248 188.15625 Z M 248 72.289062 " clip-rule="nonzero"/></clipPath><clipPath id="d2c7099de1"><path d="M 249.207031 182.234375 C 269.1875 162.625 307.804688 120.265625 322.175781 104.550781 C 329.359375 96.617188 333.777344 92.203125 338.414062 86.589844 C 342.230469 81.949219 345.601562 74.914062 348.292969 73.34375 C 349.417969 72.59375 350.539062 72.59375 351.363281 72.820312 C 352.035156 72.96875 352.710938 73.566406 353.085938 74.167969 C 353.457031 74.691406 353.683594 75.511719 353.609375 76.1875 C 353.609375 76.859375 353.308594 77.683594 352.859375 78.207031 C 352.1875 78.804688 350.765625 79.40625 349.867188 79.332031 C 349.191406 79.332031 348.445312 78.882812 347.921875 78.433594 C 347.472656 77.984375 347.023438 77.234375 346.949219 76.5625 C 346.871094 75.664062 347.394531 74.167969 347.996094 73.566406 C 348.445312 73.042969 349.265625 72.746094 349.941406 72.667969 C 350.613281 72.59375 351.4375 72.746094 352.035156 73.117188 C 352.636719 73.492188 353.160156 74.167969 353.382812 74.765625 C 353.683594 75.4375 353.832031 75.960938 353.535156 76.933594 C 352.636719 79.628906 348.21875 84.34375 342.832031 90.855469 C 328.6875 107.695312 276.375 164.945312 262.304688 179.015625 C 257.589844 183.730469 254.820312 187.175781 252.5 187.996094 C 251.527344 188.296875 250.777344 188.074219 250.105469 187.773438 C 249.429688 187.472656 248.757812 186.648438 248.457031 186.050781 C 248.160156 185.527344 248.085938 185.003906 248.160156 184.40625 C 248.308594 183.730469 249.207031 182.234375 249.207031 182.234375 " clip-rule="nonzero"/></clipPath><clipPath id="05e8460b46"><path d="M 0.0078125 0.566406 L 105.863281 0.566406 L 105.863281 116.15625 L 0.0078125 116.15625 Z M 0.0078125 0.566406 " clip-rule="nonzero"/></clipPath><clipPath id="93421f5332"><path d="M 1.207031 110.234375 C 21.1875 90.625 59.804688 48.265625 74.175781 32.550781 C 81.359375 24.617188 85.777344 20.203125 90.414062 14.589844 C 94.230469 9.949219 97.601562 2.914062 100.292969 1.34375 C 101.417969 0.59375 102.539062 0.59375 103.363281 0.820312 C 104.035156 0.96875 104.710938 1.566406 105.085938 2.167969 C 105.457031 2.691406 105.683594 3.511719 105.609375 4.1875 C 105.609375 4.859375 105.308594 5.683594 104.859375 6.207031 C 104.1875 6.804688 102.765625 7.40625 101.867188 7.332031 C 101.191406 7.332031 100.445312 6.882812 99.921875 6.433594 C 99.472656 5.984375 99.023438 5.234375 98.949219 4.5625 C 98.871094 3.664062 99.394531 2.167969 99.996094 1.566406 C 100.445312 1.042969 101.265625 0.746094 101.941406 0.667969 C 102.613281 0.59375 103.4375 0.746094 104.035156 1.117188 C 104.636719 1.492188 105.160156 2.167969 105.382812 2.765625 C 105.683594 3.4375 105.832031 3.960938 105.535156 4.933594 C 104.636719 7.628906 100.21875 12.34375 94.832031 18.855469 C 80.6875 35.695312 28.375 92.945312 14.304688 107.015625 C 9.589844 111.730469 6.820312 115.175781 4.5 115.996094 C 3.527344 116.296875 2.777344 116.074219 2.105469 115.773438 C 1.429688 115.472656 0.757812 114.648438 0.457031 114.050781 C 0.160156 113.527344 0.0859375 113.003906 0.160156 112.40625 C 0.308594 111.730469 1.207031 110.234375 1.207031 110.234375 " clip-rule="nonzero"/></clipPath><clipPath id="5531b260cb"><rect x="0" width="106" y="0" height="117"/></clipPath><clipPath id="3965e0e633"><path d="M 8.027344 72.398438 L 118.804688 72.398438 L 118.804688 186.808594 L 8.027344 186.808594 Z M 8.027344 72.398438 " clip-rule="nonzero"/></clipPath><clipPath id="c7051a7205"><path d="M 14.433594 74.015625 C 26.183594 90.554688 30.449219 95.945312 38.308594 104.328125 C 54.625 121.6875 113.449219 173.328125 117.9375 181.113281 C 118.609375 182.234375 118.609375 182.609375 118.535156 183.355469 C 118.460938 184.105469 118.164062 185.003906 117.5625 185.527344 C 116.890625 186.203125 115.316406 186.726562 114.34375 186.726562 C 113.597656 186.648438 112.773438 186.203125 112.25 185.675781 C 111.726562 185.152344 111.277344 184.332031 111.203125 183.582031 C 111.203125 182.609375 111.800781 181.039062 112.398438 180.363281 C 113 179.765625 113.820312 179.464844 114.570312 179.390625 C 115.316406 179.390625 116.214844 179.539062 116.816406 179.988281 C 117.636719 180.589844 118.460938 182.011719 118.535156 182.984375 C 118.609375 183.730469 118.238281 184.628906 117.863281 185.226562 C 117.414062 185.828125 116.742188 186.425781 115.917969 186.574219 C 115.019531 186.800781 114.046875 186.726562 112.550781 185.902344 C 107.460938 183.207031 95.1875 168.089844 84.335938 157.460938 C 69.890625 143.242188 44.667969 120.792969 33.292969 108.742188 C 27.082031 102.15625 23.863281 98.113281 19.597656 92.726562 C 15.558594 87.636719 9.34375 80.378906 8.371094 77.308594 C 8 76.1875 8.074219 75.589844 8.296875 74.839844 C 8.597656 74.167969 9.269531 73.34375 9.945312 72.96875 C 10.617188 72.59375 11.589844 72.445312 12.339844 72.667969 C 13.085938 72.820312 14.433594 74.015625 14.433594 74.015625 " clip-rule="nonzero"/></clipPath><clipPath id="720cd91762"><path d="M 0.0273438 0.398438 L 110.6875 0.398438 L 110.6875 114.800781 L 0.0273438 114.800781 Z M 0.0273438 0.398438 " clip-rule="nonzero"/></clipPath><clipPath id="53eac3b623"><path d="M 6.433594 2.015625 C 18.183594 18.554688 22.449219 23.945312 30.308594 32.328125 C 46.625 49.6875 105.449219 101.328125 109.9375 109.113281 C 110.609375 110.234375 110.609375 110.609375 110.535156 111.355469 C 110.460938 112.105469 110.164062 113.003906 109.5625 113.527344 C 108.890625 114.203125 107.316406 114.726562 106.34375 114.726562 C 105.597656 114.648438 104.773438 114.203125 104.25 113.675781 C 103.726562 113.152344 103.277344 112.332031 103.203125 111.582031 C 103.203125 110.609375 103.800781 109.039062 104.398438 108.363281 C 105 107.765625 105.820312 107.464844 106.570312 107.390625 C 107.316406 107.390625 108.214844 107.539062 108.816406 107.988281 C 109.636719 108.589844 110.460938 110.011719 110.535156 110.984375 C 110.609375 111.730469 110.238281 112.628906 109.863281 113.226562 C 109.414062 113.828125 108.742188 114.425781 107.917969 114.574219 C 107.019531 114.800781 106.046875 114.726562 104.550781 113.902344 C 99.460938 111.207031 87.1875 96.089844 76.335938 85.460938 C 61.890625 71.242188 36.667969 48.792969 25.292969 36.742188 C 19.082031 30.15625 15.863281 26.113281 11.597656 20.726562 C 7.558594 15.636719 1.34375 8.378906 0.371094 5.308594 C 0 4.1875 0.0742188 3.589844 0.296875 2.839844 C 0.597656 2.167969 1.269531 1.34375 1.945312 0.96875 C 2.617188 0.59375 3.589844 0.445312 4.339844 0.667969 C 5.085938 0.820312 6.433594 2.015625 6.433594 2.015625 " clip-rule="nonzero"/></clipPath><clipPath id="c6ca5eaa19"><rect x="0" width="111" y="0" height="115"/></clipPath></defs><g clip-path="url(#8593b3faa6)"><g clip-path="url(#d098a2ee8f)"><g transform="matrix(1, 0, 0, 1, 110, 175)"><g clip-path="url(#f874fece9b)"><g clip-path="url(#5c86b2bffa)"><g clip-path="url(#ae7030938c)"><rect x="-190.19" width="524.88" fill="#000000" height="504.360004" y="-252.055001" fill-opacity="1"/></g></g></g></g></g></g><g clip-path="url(#93c7204471)"><g clip-path="url(#4a09dacf7f)"><g transform="matrix(1, 0, 0, 1, 110, 181)"><g clip-path="url(#21482792e8)"><g clip-path="url(#979182b0c6)"><g clip-path="url(#40d09e393d)"><rect x="-190.19" width="524.88" fill="#000000" height="504.360004" y="-258.055001" fill-opacity="1"/></g></g></g></g></g></g><g clip-path="url(#855eee597b)"><g clip-path="url(#75789e2db5)"><g transform="matrix(1, 0, 0, 1, 178, 2)"><g clip-path="url(#9b7855d013)"><g clip-path="url(#b7b95a5029)"><g clip-path="url(#540772e8bd)"><rect x="-258.19" width="524.88" fill="#000000" height="504.360004" y="-79.055001" fill-opacity="1"/></g></g></g></g></g></g><g clip-path="url(#0788bbd42f)"><g clip-path="url(#4841350324)"><g transform="matrix(1, 0, 0, 1, 2, 7)"><g clip-path="url(#2eeef47015)"><g clip-path="url(#8729e5fed2)"><g clip-path="url(#74e99f4f84)"><rect x="-82.19" width="524.88" fill="#000000" height="504.360004" y="-84.055001" fill-opacity="1"/></g></g></g></g></g></g><g clip-path="url(#297dcee27d)"><g clip-path="url(#dc11521e3f)"><g transform="matrix(1, 0, 0, 1, 110, 36)"><g clip-path="url(#53de4a7797)"><g clip-path="url(#4d5c450721)"><g clip-path="url(#fa9fc0956b)"><rect x="-190.19" width="524.88" fill="#000000" height="504.360004" y="-113.055001" fill-opacity="1"/></g></g></g></g></g></g><g clip-path="url(#b0778561c6)"><g clip-path="url(#025ebe7c31)"><g transform="matrix(1, 0, 0, 1, 247, 34)"><g clip-path="url(#ab599559d8)"><g clip-path="url(#9bf4702bff)"><g clip-path="url(#97c60d8c1d)"><rect x="-327.19" width="524.88" fill="#000000" height="504.360004" y="-111.055001" fill-opacity="1"/></g></g></g></g></g></g><g clip-path="url(#46071625ed)"><g clip-path="url(#d2c7099de1)"><g transform="matrix(1, 0, 0, 1, 248, 72)"><g clip-path="url(#5531b260cb)"><g clip-path="url(#05e8460b46)"><g clip-path="url(#93421f5332)"><rect x="-328.19" width="524.88" fill="#000000" height="504.360004" y="-149.055001" fill-opacity="1"/></g></g></g></g></g></g><g clip-path="url(#3965e0e633)"><g clip-path="url(#c7051a7205)"><g transform="matrix(1, 0, 0, 1, 8, 72)"><g clip-path="url(#c6ca5eaa19)"><g clip-path="url(#720cd91762)"><g clip-path="url(#53eac3b623)"><rect x="-88.19" width="524.88" fill="#000000" height="504.360004" y="-149.055001" fill-opacity="1"/></g></g></g></g></g></g></svg>